<svg xmlns="http://www.w3.org/2000/svg" data-name="Layer 1" style="fill:rgb(168, 151, 139)" viewBox="0 0 100 125" x="0px" y="0px" width="70px" height="70px"><title>Artboard 1</title><path d="M27,89H73V14H27ZM57.48,67.78l.4,5.1H58l-2.71,4.42a.15.15,0,0,1-.17.07.14.14,0,0,1-.11-.14L54.31,68h1.87C56.62,67.94,57.05,67.86,57.48,67.78Zm2.35,4.33-.38-4.82A19.37,19.37,0,0,0,71,57.83v7a17.14,17.14,0,0,1-11.17,7.24ZM63,16V60h2V16h6V52A17.51,17.51,0,0,1,56,66H52.16L53,77.36A2.13,2.13,0,0,0,54.6,79.3a2.49,2.49,0,0,0,.53.07,2.13,2.13,0,0,0,1.82-1l2.53-4.12A19.7,19.7,0,0,0,70,69.15c.37-.34.7-.72,1-1.09V87H37.92L65,81.71V75H63v5.06L29,86.71V16Z"/><rect x="59" y="44" width="2" height="6"/></svg>