<svg xmlns="http://www.w3.org/2000/svg" data-name="Layer 2" viewBox="0 0 128 160" x="0px" y="0px" fill="rgb(168, 151, 139)"><title>person, anonymous, male, people, avatar, hacker, suspect</title><path d="M42.821,47.123A9.676,9.676,0,1,0,59.383,49.05c1.547.06,3.093.1,4.617.1s3.07-.04,4.617-.1A9.658,9.658,0,1,0,85.18,47.124c11.438-2.31,19.555-6.31,20.407-10.148a3.265,3.265,0,0,0-.661-2.788c-1.54-1.976-5.567-3.234-11.13-3.5C91.573,20.074,85.028,7.056,76.9,3.178a10.7,10.7,0,0,0-10.126.19,5.962,5.962,0,0,1-5.557,0A10.7,10.7,0,0,0,51.1,3.178c-8.124,3.878-14.668,16.9-16.891,27.514-5.552.258-9.589,1.517-11.131,3.5a3.267,3.267,0,0,0-.661,2.789C23.265,40.814,31.383,44.814,42.821,47.123ZM50.55,60.58a7.65,7.65,0,0,1-5.458-13.03,105.6,105.6,0,0,0,11.985,1.391A7.636,7.636,0,0,1,50.55,60.58Zm26.9,0a7.636,7.636,0,0,1-6.527-11.639,105.875,105.875,0,0,0,11.986-1.39A7.65,7.65,0,0,1,77.45,60.58ZM36,31.852v0C38,21.435,44.509,8.539,51.957,4.982a8.793,8.793,0,0,1,8.321.15,7.877,7.877,0,0,0,7.443,0,8.8,8.8,0,0,1,8.322-.15C83.491,8.539,90,21.435,92,31.852A33.993,33.993,0,0,1,92.5,35.31c-.7,1.656-12.031,5.34-28.5,5.34s-27.8-3.684-28.5-5.34A33.993,33.993,0,0,1,36,31.852Zm-11.35,3.565c.884-1.133,3.75-2.392,9.176-2.7-.144.886-.265,1.758-.337,2.616,0,4.123,16.4,7.32,30.51,7.32s30.51-3.2,30.506-7.406c-.069-.8-.189-1.653-.332-2.531,5.422.31,8.291,1.571,9.175,2.7a1.277,1.277,0,0,1,.285,1.126c-.585,2.639-7.991,6.673-20.564,8.954a103.582,103.582,0,0,1-12.794,1.484,117.273,117.273,0,0,1-12.55,0,103.6,103.6,0,0,1-12.8-1.486c-12.572-2.28-19.978-6.314-20.563-8.952A1.278,1.278,0,0,1,24.651,35.417Z"/><path d="M112.26,113.021a60.422,60.422,0,0,0-5.728-10.3,16.874,16.874,0,0,0-5.955-5.623l-9.915-6.207c-2.022-1.828-4.773-3.461-12.411-6.231-1.046-3.027-2.912-3.3-3.96-3.18A11.9,11.9,0,0,0,71.5,82.3a19.6,19.6,0,0,1-15,0,11.873,11.873,0,0,0-2.807-.824c-1.05-.126-2.919.159-3.947,3.181-7.628,2.766-10.384,4.4-12.42,6.229L27.413,97.1a16.879,16.879,0,0,0-5.959,5.627,61.064,61.064,0,0,0-5.725,10.3,4.042,4.042,0,0,0,1.464,5.109c3.816,2.245,10.814,4.278,19.7,5.724,2.5.42,5.227.79,8.094,1.1A175.448,175.448,0,0,0,64,126a174.893,174.893,0,0,0,19-1.046c2.874-.308,5.6-.678,8.094-1.1,8.9-1.447,15.9-3.48,19.7-5.724A4.032,4.032,0,0,0,112.26,113.021ZM88.729,98.567a1.094,1.094,0,0,0-.115.053,1,1,0,0,0-.212.1.893.893,0,0,0-.131.122.655.655,0,0,0-.224.34.961.961,0,0,0-.06.13c0,.01,0,.021,0,.031a2.846,2.846,0,0,0,0,.4c0,.01,0,.021,0,.031a1.007,1.007,0,0,0,.09.21c.015.03.022.064.04.093a.985.985,0,0,0,.241.261c.023.018.053.027.078.043a1.018,1.018,0,0,0,.253.116c.015,0,.026.015.04.019,4.531,1.074,4.593,2.011,4.643,2.759.319,5.066-1.847,15.213-3.162,18.7-1.958.319-4.051.606-6.245.859,1.152-16.661-1.92-26.895-4.9-35.741,6.253,2.348,8.648,3.813,10.322,5.342,2.863,2.593,3.081,4.144,2.752,4.662A7.948,7.948,0,0,1,88.729,98.567Zm-44.7,24.264c-2.189-.252-4.281-.539-6.245-.859-1.315-3.487-3.48-13.635-3.161-18.7.05-.752.112-1.689,4.643-2.763.015,0,.025-.014.039-.019a.973.973,0,0,0,.258-.118c.024-.015.051-.023.074-.04a1,1,0,0,0,.242-.263.9.9,0,0,0,.038-.09A.955.955,0,0,0,40,99.771c0-.01,0-.021,0-.031a2.846,2.846,0,0,0,0-.4c0-.01,0-.021,0-.031a.943.943,0,0,0-.059-.129,1.017,1.017,0,0,0-.09-.195,2.414,2.414,0,0,0-.267-.268,93.383,93.383,0,0,1-.325-.151c-1.384-.331-3.128-1.016-3.416-1.47-.322-.511-.1-2.068,2.756-4.666,1.683-1.53,4.085-2.995,10.329-5.34C45.945,95.934,42.873,106.172,44.024,122.831ZM17.59,113.758a59.685,59.685,0,0,1,5.492-9.876,14.8,14.8,0,0,1,5.257-5.013.937.937,0,0,0,.092-.052l5.524-3.458a3.179,3.179,0,0,0,.2,2.806,4.155,4.155,0,0,0,1.664,1.306c-1.94.778-3.074,1.833-3.2,3.676-.31,4.926,1.524,14.053,2.917,18.451-7.846-1.38-13.962-3.207-17.331-5.19A2.085,2.085,0,0,1,17.59,113.758Zm28.453,9.288c-1.266-17.484,2.225-27.8,5.32-36.9l.148-.44c.684-2.385,1.635-2.283,1.95-2.242a10.383,10.383,0,0,1,2.33.707,21.6,21.6,0,0,0,16.419,0,10.4,10.4,0,0,1,2.315-.705c.319-.041,1.278-.148,1.978,2.288l.146.431c3.085,9.1,6.563,19.4,5.3,36.864A173.23,173.23,0,0,1,64,124,173.675,173.675,0,0,1,46.043,123.046Zm63.739-6.638c-3.36,1.983-9.475,3.81-17.331,5.19,1.393-4.4,3.227-13.525,2.917-18.454-.123-1.841-1.257-2.9-3.2-3.673a4.1,4.1,0,0,0,1.662-1.314,3.159,3.159,0,0,0,.21-2.793l5.516,3.453a.68.68,0,0,0,.091.051,14.814,14.814,0,0,1,5.254,5.012,58.9,58.9,0,0,1,5.494,9.876A2.08,2.08,0,0,1,109.782,116.408Z"/></svg>