<svg xmlns="http://www.w3.org/2000/svg" xmlns:xlink="http://www.w3.org/1999/xlink" version="1.1" x="0px" y="0px" viewBox="0 0 90 112.5" enable-background="new 0 0 90 90" xml:space="preserve" fill="white"><path d="M69,82.8H21c-7.6,0-13.8-6.2-13.8-13.8V21c0-7.6,6.2-13.8,13.8-13.8h48c7.6,0,13.8,6.2,13.8,13.8v48  C82.8,76.6,76.6,82.8,69,82.8z M21,10.2c-6,0-10.8,4.9-10.8,10.8v48c0,6,4.9,10.8,10.8,10.8h48c6,0,10.8-4.9,10.8-10.8V21  c0-6-4.9-10.8-10.8-10.8H21z"/><path d="M45,65.5c-0.8,0-1.5-0.7-1.5-1.5V26c0-0.8,0.7-1.5,1.5-1.5s1.5,0.7,1.5,1.5v38C46.5,64.8,45.8,65.5,45,65.5z"/><path d="M64,46.5H26c-0.8,0-1.5-0.7-1.5-1.5s0.7-1.5,1.5-1.5h38c0.8,0,1.5,0.7,1.5,1.5S64.8,46.5,64,46.5z"/></svg>