<svg xmlns:dc="http://purl.org/dc/elements/1.1/" xmlns:cc="http://creativecommons.org/ns#" xmlns:rdf="http://www.w3.org/1999/02/22-rdf-syntax-ns#" xmlns:svg="http://www.w3.org/2000/svg" xmlns="http://www.w3.org/2000/svg" xmlns:sodipodi="http://sodipodi.sourceforge.net/DTD/sodipodi-0.dtd" xmlns:inkscape="http://www.inkscape.org/namespaces/inkscape" viewBox="0 0 1279.0173 1598.999" version="1.1" x="0px" y="0px"><g transform="translate(3497.9323,926.15966)" style="fill:fill:rgb(191, 166, 149);"><path style="" d="m -2902.1736,352.57596 c -20.5895,-1.755 -45.7549,-4.81512 -61.8496,-7.521 -232.2831,-39.0512 -423.5294,-201.18752 -500.3924,-424.226705 -14.6274,-42.445365 -25.1549,-89.624965 -31.0953,-139.354165 -3.2286,-27.0283 -3.2286,-109.2217 0,-136.25 17.7073,-148.2356 78.1511,-276.1044 179.5379,-379.8118 104.1372,-106.5209 236.6947,-170.9064 389.4244,-189.1505 27.0283,-3.2286 109.2217,-3.2286 136.25,0 152.7297,18.2441 285.2872,82.6296 389.4244,189.1505 101.3868,103.7074 161.8306,231.5762 179.5378,379.8118 3.2287,27.0283 3.2287,109.2217 0,136.25 -17.7072,148.235625 -78.151,276.104375 -179.5378,379.81181 -103.9338,106.31276 -236.998,171.02106 -388.7994,189.07094 -15.9852,1.90075 -97.3955,3.5065 -112.5,2.21912 z m 563.2972,-659.73177 c -4.6873,-114.3598 -45.3702,-220.6937 -119.0623,-311.1957 -15.8451,-19.4596 -49.3247,-52.9392 -68.7843,-68.7843 -81.0099,-65.9631 -169.2285,-103.314 -275.4506,-116.6232 -23.7643,-2.9775 -88.7357,-2.9775 -112.5,0 -79.6112,9.975 -145.3278,32.1289 -210.625,71.0046 -37.1585,22.1229 -69.0931,47.0675 -100.627,78.6015 -92.9089,92.9088 -146.6586,215.5764 -152.0452,346.9971 l -0.8405,20.5049 520.3877,0 520.3877,0 -0.8405,-20.5049 z" fill="#000000"/></g></svg>