<svg xmlns="http://www.w3.org/2000/svg" xmlns:xlink="http://www.w3.org/1999/xlink" version="1.1" x="0px" y="0px" width="150px" height="150px" style="fill:rgb(90, 9, 9)" viewBox="0 0 48 60" enable-background="new 0 0 48 48" xml:space="preserve"><path d="M24,10.64c-7.37,0-13.36,5.99-13.36,13.36S16.63,37.36,24,37.36c7.37,0,13.36-5.99,13.36-13.36S31.37,10.64,24,10.64z   M31.54,23.31c-0.6,4.73-7.6,7.75-8.63,7.62c-1.03-0.13-7.05-4.81-6.45-9.54c0.28-2.16,2.3-4.1,4.47-3.82  c1.63,0.21,2.9,1.39,3.31,2.88c0.77-1.35,2.29-2.17,3.93-1.96C30.34,18.77,31.82,21.15,31.54,23.31z M43.66,22.46  c-0.72-1.25-1.86-2.91-1.86-5.01v-1.94c0-0.98-0.69-2.18-1.54-2.67c-3.49-2.02-3.43-2.22-5.09-5.09c-0.49-0.85-1.69-1.54-2.67-1.54  c-4.02,0-4.07-0.2-6.95-1.86c-0.85-0.49-2.23-0.49-3.09,0C19.57,6,19.53,6.2,15.51,6.2c-0.98,0-2.18,0.69-2.67,1.54  c-2.01,3.48-2.2,3.42-5.09,5.09c-0.85,0.49-1.54,1.69-1.54,2.67c0,4.03-0.2,4.07-1.86,6.95c-0.49,0.85-0.49,2.23,0,3.09  c2.01,3.49,1.86,3.63,1.86,6.95c0,0.98,0.69,2.18,1.54,2.67c3.48,2.01,3.42,2.2,5.09,5.09c1.59,2.75,4.65,0.54,7.94,2.43l1.68,0.97  c0.85,0.49,2.23,0.49,3.09,0c3.48-2.01,3.62-1.86,6.95-1.86c0.98,0,2.18-0.69,2.67-1.54c2.01-3.48,2.2-3.42,5.09-5.09  c0.85-0.49,1.54-1.69,1.54-2.67c0-4.03,0.2-4.07,1.86-6.95C44.16,24.69,44.16,23.31,43.66,22.46z M24,39.14  c-8.35,0-15.14-6.79-15.14-15.14c0-8.35,6.79-15.14,15.14-15.14c8.35,0,15.14,6.79,15.14,15.14C39.14,32.35,32.35,39.14,24,39.14z"/></svg>