<svg xmlns="http://www.w3.org/2000/svg" xmlns:xlink="http://www.w3.org/1999/xlink" xml:space="preserve" version="1.1" style="shape-rendering:geometricPrecision;text-rendering:geometricPrecision;image-rendering:optimizeQuality;" width="65px" height="65px" viewBox="0 0 60000 75000" x="0px" y="0px" fill-rule="evenodd" clip-rule="evenodd"><defs><style type="text/css">
   
    .fil0 {fill:black;fill-rule:nonzero}
   
  </style></defs><g><path class="fil0" d="M46711 9257c0,-8 -1,-16 -1,-25 -32,-55 -105,-116 -201,-172 -114,-65 -250,-112 -385,-124l-7 -1c-105,-8 -206,6 -288,51 -68,37 -124,78 -169,122 -198,190 -242,487 -196,818 55,398 235,837 452,1232 74,136 152,265 231,385 -11,-318 10,-647 71,-973 83,-451 242,-899 495,-1313zm-34271 37604c-5,3 -11,6 -16,8 -3766,2123 -7479,3705 -11157,4975 -208,72 -435,-39 -506,-247 -72,-208 39,-435 247,-506 3635,-1255 7305,-2819 11028,-4918 7,-4 14,-8 21,-12 10,-6 21,-12 32,-17 415,-235 831,-476 1247,-724 4085,-2436 8238,-5546 12484,-9629 -31,-28 -58,-62 -80,-100 -246,-440 -529,-1143 -723,-1911 -188,-744 -294,-1559 -210,-2277 93,-787 410,-1463 1081,-1839 157,-88 333,-158 528,-207 342,-86 690,-50 1010,64 328,117 630,317 864,546 188,185 337,394 426,601 579,-292 1174,-331 1704,-191 266,70 515,186 736,337 586,-585 1115,-1121 1646,-1668 515,-531 1037,-1078 1622,-1697 -75,-31 -140,-86 -186,-161 -215,-353 -466,-918 -646,-1538 -176,-605 -287,-1269 -239,-1859 54,-660 301,-1235 857,-1573 130,-79 276,-143 437,-190 290,-84 587,-64 861,22 280,88 540,247 742,432 141,129 259,276 342,426 454,-230 926,-270 1353,-173 177,40 345,104 502,188 515,-591 1032,-1197 1549,-1814 489,-584 963,-1164 1420,-1736 -263,-275 -598,-728 -880,-1243 -278,-506 -510,-1081 -585,-1624 -84,-610 24,-1182 461,-1601 103,-99 223,-187 360,-263 246,-135 517,-178 781,-157l12 1c271,23 539,115 760,242 145,83 274,184 376,294 360,-285 769,-411 1167,-410 317,1 625,83 892,230 267,-401 515,-785 740,-1149 213,-345 417,-689 610,-1030 -26,-17 -51,-37 -73,-60 -245,-255 -559,-678 -822,-1159 -257,-469 -473,-1002 -543,-1507 -79,-571 23,-1107 434,-1502 97,-93 209,-176 338,-247 232,-127 488,-168 737,-148l12 1c255,22 506,108 713,227 127,73 241,160 334,256 332,-255 707,-368 1072,-367 313,1 616,86 875,237 263,153 485,376 631,649 186,349 248,774 115,1236 -2,10 -5,19 -8,29 105,42 209,98 308,167 197,137 382,326 512,547 129,220 205,472 189,737 -9,147 -35,284 -78,411 -181,542 -621,865 -1170,1038 -484,153 -1058,187 -1592,155 -514,-30 -1001,-122 -1336,-225 -179,313 -372,637 -578,971 -263,425 -535,848 -815,1267 40,57 76,116 109,177 198,372 264,825 122,1318 -5,20 -11,40 -20,59 122,45 244,110 359,190 210,146 407,348 545,583 137,234 217,500 201,781 -9,157 -38,304 -83,439 -2,7 -5,15 -8,22 -197,563 -662,899 -1240,1082 -521,165 -1140,201 -1716,167 -591,-35 -1150,-145 -1511,-265 -34,-11 -66,-27 -95,-46 -460,575 -934,1154 -1418,1733 -490,586 -1008,1191 -1547,1811 157,196 276,422 345,667 120,433 84,920 -178,1403 -12,24 -26,48 -43,70l-16 22c129,79 254,183 367,305 185,201 345,459 435,739 88,276 110,573 28,862 -46,160 -109,306 -189,438 -335,558 -909,808 -1568,865 -592,51 -1257,-56 -1862,-228 -573,-163 -1100,-388 -1457,-590 -547,578 -1046,1101 -1548,1619 -528,544 -1056,1080 -1644,1666 172,235 300,503 369,792 127,528 58,1116 -287,1686l-1 0c-10,16 -20,31 -32,46 -30,37 -61,74 -91,110 181,103 358,253 512,433 213,248 392,562 487,898 92,327 105,676 -4,1012 -62,192 -144,362 -242,513 -420,645 -1114,916 -1904,957 -723,37 -1529,-124 -2259,-360 -754,-244 -1436,-573 -1859,-848 -61,-39 -107,-93 -138,-153 -2963,2841 -5883,5214 -8767,7220 3965,-1529 8710,-2894 13441,-3805 1827,-352 3653,-636 5432,-837 534,-87 1034,-139 1502,-153 2115,-267 2632,-1165 3218,-2184 356,-619 735,-1277 1441,-1902 330,-292 1367,-848 2269,-1120 710,-214 1382,-257 1734,90 125,124 223,277 284,432 67,172 92,356 62,519 -77,426 -326,943 -621,1425 -392,640 -879,1242 -1135,1462 -554,477 -1245,842 -1977,1116 865,29 1697,90 2490,186 28,-2 56,-1 84,3 777,116 1878,-71 2442,-167l134 -22c2152,-358 4253,-195 6084,373 1909,592 3529,1627 4619,2975 146,181 223,374 240,564 15,156 -11,305 -72,440 -59,133 -151,249 -268,344 -163,132 -379,220 -628,243 -1673,157 -2927,144 -4109,-127 -1185,-271 -2280,-795 -3631,-1660l-22 -14c-1266,-810 -2650,-1696 -4023,-2025 -523,-87 -1067,-156 -1630,-208 1018,497 1979,1160 2851,1936 1935,1723 3431,4010 4107,6263l0 0 4 12 0 0 0 1c102,352 68,665 -62,917 -137,264 -372,451 -663,539l0 0 -8 2 0 0 -1 0c-1694,493 -3325,-164 -4751,-1316 -1979,-1599 -3569,-4174 -4333,-5861 -487,-1075 -1147,-1763 -2022,-2122 -569,-233 -1237,-334 -2014,-318l-27 2 -13 2c-12,1 -24,2 -37,3 -2199,193 -4496,528 -6798,972 -7121,1371 -14264,3775 -18665,6209zm35187 -37520c-340,407 -536,886 -626,1372 -81,439 -76,884 -11,1291 403,-161 786,-353 1125,-598 434,-313 802,-718 1055,-1263 65,-241 35,-455 -56,-626 -74,-138 -189,-253 -328,-333 -143,-83 -307,-130 -475,-131 -233,-1 -477,87 -685,288zm954 2712c-306,221 -636,404 -979,559 168,25 348,45 535,56 449,26 923,0 1308,-121 319,-101 568,-267 655,-526 20,-60 33,-128 37,-205 6,-99 -26,-198 -80,-290 -69,-117 -169,-219 -277,-294 -94,-65 -182,-105 -246,-109 -7,3 -14,7 -21,10 -265,367 -581,668 -932,921zm-6416 3718c-1,-16 -1,-32 -1,-48l-2 1c0,0 0,0 0,0 -36,-66 -121,-140 -234,-204 -128,-73 -280,-126 -432,-139l-7 -1c-121,-9 -237,7 -333,60 -76,42 -139,88 -191,138 -224,215 -274,547 -223,917 60,436 257,917 495,1349 103,187 212,364 320,523 -22,-381 -2,-778 71,-1172 90,-489 263,-975 538,-1423zm-1 -48c0,-6 1,-12 1,-17 1,-13 -2,16 -3,18l2 -1zm936 108c-374,448 -590,973 -689,1507 -92,496 -82,998 -5,1455 454,-178 886,-393 1268,-669 476,-344 880,-789 1157,-1387 74,-272 41,-514 -63,-707 -83,-156 -213,-285 -369,-375 -160,-93 -344,-146 -532,-146 -262,-1 -535,97 -768,323zm1040 2940c-361,261 -754,472 -1162,649 214,37 451,65 698,79 491,29 1010,0 1432,-133 351,-111 626,-294 728,-579 2,-5 3,-10 5,-15 23,-68 37,-145 42,-230 7,-114 -30,-229 -91,-334 -77,-132 -190,-246 -311,-330 -107,-74 -210,-120 -285,-124 -1,0 0,0 0,-1l0 -4c-15,8 -31,15 -46,21 -287,399 -629,726 -1009,1001zm1068 -1029c-4,3 -9,5 -13,7l0 4c3,-4 25,-18 13,-11zm-9292 5796c3,-24 8,-47 15,-71 2,-6 -4,4 -7,-5 -25,-86 -102,-190 -213,-291 -123,-113 -278,-208 -442,-260 -136,-43 -276,-55 -401,-19 -94,27 -176,63 -247,106 -301,183 -439,536 -473,955 -40,489 56,1054 207,1575 80,276 174,536 272,766 62,-454 183,-918 372,-1364 213,-502 514,-980 916,-1392zm936 236c-518,395 -881,913 -1118,1469 -224,528 -335,1088 -357,1612 545,-83 1076,-212 1568,-424 599,-258 1143,-642 1586,-1222 149,-282 171,-558 104,-799 -54,-195 -166,-370 -315,-508 -152,-141 -343,-243 -552,-291 -285,-65 -608,-25 -917,163zm410 3392c-483,208 -992,344 -1512,437 249,108 538,213 847,301 522,149 1088,243 1574,200 419,-36 771,-175 953,-478 42,-70 77,-152 104,-247 36,-127 24,-266 -19,-399 -53,-164 -149,-319 -263,-442 -101,-109 -206,-186 -293,-210 -11,-3 5,-12 -4,-9 -25,8 -50,13 -75,16 -400,359 -844,628 -1314,831zm-9271 4049c3,-34 10,-69 22,-103 3,-9 0,-31 -7,-61 -32,-125 -132,-274 -276,-416 -156,-153 -355,-286 -571,-362 -182,-64 -372,-87 -551,-42 -124,31 -235,75 -332,129 -414,232 -614,688 -678,1232 -72,614 24,1330 191,1993 122,483 280,933 438,1293 81,-657 262,-1341 564,-1987 286,-611 680,-1188 1199,-1677zm1006 204c-675,477 -1159,1117 -1484,1810 -324,692 -490,1437 -529,2128 727,-77 1439,-216 2099,-473 765,-298 1469,-757 2055,-1470 219,-371 263,-743 185,-1070 -62,-260 -202,-496 -394,-687 -194,-193 -440,-337 -713,-409 -375,-99 -803,-62 -1219,171zm374 4209c-697,271 -1432,423 -2176,509 359,192 822,394 1326,557 650,211 1359,354 1975,323 549,-28 1018,-197 1276,-594 61,-93 112,-201 151,-323 57,-174 47,-366 -6,-552 -62,-220 -182,-428 -324,-594 -132,-153 -273,-263 -395,-303 -30,-10 -51,-14 -61,-11 -35,10 -71,15 -105,15 -509,430 -1069,744 -1661,974zm12372 3865c-307,2 -617,7 -930,15 817,474 1451,1220 1929,2277 728,1609 2238,4059 4105,5567 1238,1001 2629,1579 4028,1173l0 0 6 -2 0 0c84,-25 148,-73 182,-139 40,-78 47,-189 7,-328l0 0 -3 -9 0 0c-635,-2114 -2046,-4266 -3873,-5894 -1588,-1414 -3485,-2426 -5449,-2661zm6399 61l4 14c978,444 1921,1047 2808,1615l22 14c1271,813 2292,1305 3381,1554 1092,250 2272,260 3859,111 85,-8 154,-34 200,-72 19,-15 32,-31 39,-47 6,-13 8,-28 7,-44 -3,-36 -25,-81 -69,-135 -989,-1224 -2473,-2167 -4231,-2713 -1719,-533 -3694,-685 -5722,-348 -30,5 -46,8 -131,22 -52,9 -109,18 -169,28zm-6344 -2463c-297,516 -579,1006 -1002,1422 610,-102 1259,-253 1880,-468 728,-253 1414,-594 1943,-1049 208,-179 624,-700 976,-1274 251,-411 461,-834 518,-1150 3,-15 -5,-47 -21,-88 -22,-56 -56,-111 -99,-153 -103,-101 -490,-31 -946,107 -803,242 -1698,712 -1969,951 -610,540 -954,1139 -1279,1702z"/></g><text x="0" y="60015" fill="#000000" font-size="5px" font-weight="bold" font-family="'Helvetica Neue', Helvetica, Arial-Unicode, Arial, Sans-serif">Created by Olena Panasovska</text><text x="0" y="60020" fill="#000000" font-size="5px" font-weight="bold" font-family="'Helvetica Neue', Helvetica, Arial-Unicode, Arial, Sans-serif">from the Noun Project</text></svg>