<svg xmlns="http://www.w3.org/2000/svg" xmlns:xlink="http://www.w3.org/1999/xlink" xml:space="preserve" version="1.1" style="shape-rendering:geometricPrecision;text-rendering:geometricPrecision;image-rendering:optimizeQuality;" width="60px" height="60px" viewBox="0 0 60000 75000" x="0px" y="0px" fill-rule="evenodd" clip-rule="evenodd"><defs><style type="text/css">
   
    .fil0 {fill: rgb(197, 155, 212);fill-rule:nonzero}
   
  </style></defs><g><path class="fil0" d="M33866 15513c209,-934 364,-1828 479,-2596 117,-783 189,-1415 230,-1829 35,-342 67,-684 90,-1027 0,-9 1,-19 2,-28 51,-749 61,-1503 -27,-2270 -127,-1113 -463,-2263 -1189,-3481 -453,-761 -508,-739 -1317,-412l-16 7c-117,47 -230,95 -340,143 -3020,1318 -4776,3469 -5526,5907 -82,265 -151,534 -210,805 -2,12 -4,24 -7,35 -470,2230 -168,4645 726,6862 31,77 63,154 95,229 24,13 49,26 73,39 23,10 45,23 66,38 224,157 435,310 649,466 1160,843 2413,1752 3962,2055 42,-2314 948,-3943 2261,-4941zm-3282 -9791c118,-71 271,-32 342,86 71,118 32,271 -86,342 -315,189 -706,532 -1076,939 -347,383 -672,820 -893,1236 -64,122 -215,169 -337,104 -122,-64 -169,-215 -104,-337 240,-453 591,-925 965,-1338 402,-443 835,-821 1189,-1033zm17222 16621l-705 378 378 705 705 -377 -378 -705zm7584 -5496c-159,203 -326,400 -498,591l594 536c114,-127 225,-256 334,-387 67,-81 133,-163 198,-245l-628 -496zm-2205 2179c-204,162 -412,320 -624,474l470 648c220,-160 437,-325 650,-494l-496 -627zm-2601 1768c-227,136 -455,269 -684,400l397 694c234,-134 466,-269 697,-407l-410 -687zm-46805 21221l-33 53 -56 92 -56 93 -55 93 -54 94 -54 95 -53 95 -52 96 703 381 49 -90 50 -90 51 -89 51 -89 52 -88 52 -87 53 -87 33 -53 -681 -419zm23599 -5842l-124 -41 -105 -34 -105 -34 -105 -33 -106 -33 -106 -32 -125 -38 -227 767 119 36 103 31 102 32 102 32 102 33 102 33 121 40 252 -759zm-3138 -838l-97 -20 -109 -22 -109 -21 -110 -21 -110 -20 -110 -20 -110 -19 -43 -7 -134 789 39 7 107 19 107 19 106 20 106 20 106 21 106 21 97 20 157 -784zm-3213 -457l-84 -7 -111 -8 -111 -8 -111 -8 -111 -7 -111 -7 -111 -6 -60 -3 -39 799 57 3 108 6 108 6 108 7 108 7 108 8 108 8 84 7 62 -798zm-3247 -62l-47 2 -110 5 -110 6 -110 6 -110 7 -110 7 -109 8 -106 8 63 798 102 -8 106 -8 106 -7 106 -7 106 -6 106 -6 106 -5 47 -2 -38 -799zm-3233 370l-61 12 -106 21 -106 21 -106 22 -105 22 -105 23 -105 23 -103 23 178 780 99 -22 101 -22 101 -22 101 -21 102 -21 102 -20 102 -20 61 -12 -150 -786zm-3147 856l-99 36 -99 37 -98 38 -98 38 -98 39 -98 39 -97 40 -76 31 309 738 71 -30 93 -38 93 -37 93 -37 94 -36 94 -36 94 -35 95 -35 -274 -752zm-2956 1409l-55 33 -88 54 -88 55 -87 56 -87 56 -87 57 -86 57 -86 58 -27 19 454 659 23 -16 81 -55 82 -54 82 -54 82 -53 83 -53 83 -52 84 -52 55 -33 -418 -682zm-2603 2003l-62 60 -74 73 -73 74 -73 74 -72 75 -72 76 -71 76 -77 83 595 535 68 -74 67 -72 68 -71 68 -71 69 -70 69 -70 70 -69 62 -60 -561 -570zm52586 -19434c91,-94 217,-133 338,-117 127,-6 254,50 336,159 132,176 96,426 -80,558 -71,54 -142,107 -213,160 -2074,2272 -1611,4077 -1034,6334 171,668 351,1372 483,2113 327,1845 502,3967 116,5823 -400,1922 -1393,3551 -3413,4313 -587,221 -1031,275 -1425,107 -392,-167 -671,-529 -929,-1136 -870,-2052 -542,-5363 402,-8603 773,-2654 1963,-5279 3245,-7128 -1649,1120 -3204,2063 -4672,2843 -21,27 -45,52 -74,73 -3712,2834 -3441,5509 -3100,8875 95,936 195,1923 222,2993 66,2591 -130,5527 -1036,7972 -932,2513 -2601,4511 -5475,5126 -812,174 -1399,159 -1867,-130 -465,-287 -755,-813 -972,-1660 -761,-2966 371,-7413 2327,-11643 1907,-4125 4608,-8068 7098,-10233 -1695,711 -3263,1185 -4722,1454 -3999,739 -7174,-53 -9865,-1737 -1868,997 -3116,36 -3732,-503 -250,736 -264,1655 -16,2901 36,179 39,336 12,470 -39,196 -136,345 -286,446 -136,92 -300,131 -488,117 -171,-12 -367,-70 -582,-172 -1534,-732 -2554,-1708 -3208,-2741 -787,-1242 -1041,-2563 -1023,-3639 -971,-289 -1936,-130 -2920,33 -200,33 -400,66 -502,82 -924,142 -1863,122 -2972,-122 -1083,-238 -2330,-693 -3894,-1424 -25,-11 -50,-25 -74,-42 -179,-129 -219,-378 -91,-556 2117,-2947 4102,-4358 6000,-4836 -895,-985 -1753,-2031 -2405,-3099 -714,-1171 -1179,-2370 -1177,-3549 -11,-166 83,-328 245,-395 1309,-544 2844,-766 4422,-618 1322,124 2675,507 3952,1177 33,-124 68,-248 106,-370 815,-2649 2713,-4982 5970,-6403 121,-53 241,-103 362,-152l16 -7c1400,-565 1496,-603 2298,743 793,1330 1159,2585 1298,3799 62,538 78,1066 67,1589 752,-502 1582,-909 2481,-1205 1125,-370 2361,-567 3692,-556 544,4 859,179 995,490 125,286 53,631 -163,1022 -295,536 -545,1088 -795,1638 -614,1354 -1221,2693 -2480,3860 321,76 638,174 946,294 2116,823 3865,2665 4140,5393 6,37 6,75 1,114 -24,175 -158,308 -323,338 -236,54 -485,22 -748,-57 -1802,-97 -3325,489 -4833,1069 -1158,446 -2307,888 -3588,1046 167,290 303,644 364,1037 101,659 -4,1431 -523,2190 2504,1530 5459,2238 9174,1552 3872,-715 8567,-2937 14428,-7298 52,-56 105,-112 160,-169zm-1424 7290c-332,-1296 -629,-2458 -506,-3637 -1071,1715 -2054,3980 -2723,6279 -898,3085 -1226,6201 -433,8072 172,406 327,634 507,711 178,76 442,28 831,-119 1716,-647 2565,-2058 2913,-3728 361,-1736 191,-3756 -122,-5523 -132,-747 -304,-1418 -467,-2054zm-9388 7161c-213,-2105 -401,-3958 284,-5752 -2003,2185 -4038,5360 -5567,8666 -1888,4084 -2992,8339 -2280,11112 163,636 349,1012 619,1178 267,165 675,157 1283,27 2555,-547 4049,-2349 4891,-4620 867,-2338 1054,-5171 990,-7679 -26,-1031 -125,-2008 -219,-2934zm-46049 4180c-104,194 -346,267 -541,163 -194,-104 -267,-346 -163,-541 2085,-3849 5702,-6188 9873,-7252 4679,-1194 10061,-779 14742,909 207,74 315,302 241,509 -74,207 -302,315 -509,241 -4537,-1636 -9750,-2039 -14277,-884 -3966,1012 -7400,3224 -9367,6855zm28099 -3812c-186,-117 -242,-364 -125,-550 117,-186 364,-242 550,-125 3070,1941 5453,4558 6531,7707 958,2798 884,6002 -653,9509 -47,108 -98,217 -153,326 2310,1398 4902,2355 8153,366 188,-115 434,-55 548,133 115,188 55,434 -133,548 -3634,2224 -6457,1172 -8959,-349 -629,1017 -1517,2032 -2526,2864 -933,770 -1973,1389 -3013,1716 -1076,339 -2155,370 -3126,-56 -534,-234 -1030,-605 -1468,-1136 -336,-407 -582,-881 -731,-1390 -222,-761 -226,-1598 16,-2401 242,-801 728,-1570 1485,-2195 564,-466 1279,-850 2156,-1107 2116,-618 4007,643 6055,2010 284,189 571,381 862,569 35,-73 69,-146 101,-218 1450,-3307 1524,-6317 628,-8934 -1015,-2964 -3277,-5441 -6199,-7288zm2728 19813c946,-781 1776,-1728 2357,-2672 -311,-201 -617,-405 -920,-607 -1887,-1259 -3629,-2421 -5389,-1907 -766,224 -1387,556 -1872,957 -626,517 -1027,1149 -1226,1807 -198,656 -196,1337 -16,1951 118,405 314,782 581,1105 354,429 749,725 1171,911 778,341 1668,309 2570,25 938,-296 1887,-862 2744,-1570zm-17115 -33192c1302,587 2364,961 3293,1166 1007,221 1854,240 2685,113 231,-35 362,-57 492,-79 1114,-184 2207,-365 3389,25 1776,-1311 3721,-1139 5673,-905 130,-188 249,-395 364,-600 -1587,-378 -2838,-1287 -4002,-2132 -215,-156 -427,-311 -624,-449 -58,-31 -117,-62 -175,-92 -10,-5 -20,-10 -29,-15 -1707,-889 -3441,-1543 -5243,-1280 -1807,263 -3724,1451 -5823,4248zm16412 425c780,88 1553,149 2295,85 19,-2 38,-2 57,-1 1460,-40 2767,-543 4086,-1051 1115,-429 2237,-861 3483,-1044 -1131,-505 -1960,-873 -3002,-361 -246,121 -478,282 -705,440 -846,587 -1638,1137 -3405,367 -294,-128 -657,-203 -1020,-172 -289,25 -575,119 -821,313 -191,150 -354,377 -511,635 -3,4 -5,9 -8,13 -76,125 -150,256 -225,389 -72,128 -146,258 -223,387zm2272 974c-1441,817 -2516,1479 -3134,2324 -26,35 -50,70 -74,106 19,17 40,35 61,54 441,393 1428,1270 2902,501 102,-110 192,-221 270,-333 403,-574 486,-1155 410,-1648 -66,-426 -244,-780 -435,-1004zm-2991 -254c-1884,-229 -3768,-458 -5375,733 -33,960 182,2160 897,3287 581,917 1495,1788 2877,2447 89,43 165,71 227,86 -2,-21 -6,-44 -11,-69 -403,-2022 -174,-3323 598,-4377 540,-738 1331,-1325 2350,-1944 -520,-36 -1041,-99 -1562,-162zm-5772 -11732c-1238,-685 -2557,-1072 -3842,-1192 -1346,-126 -2655,40 -3791,463 59,940 461,1919 1054,2891 668,1095 1578,2181 2517,3199 43,47 72,100 89,157 1589,-171 3097,266 4567,942 -742,-2102 -984,-4348 -595,-6460zm10248 -591c-23,296 -51,592 -80,887 -44,438 -118,1094 -234,1866 -85,571 -194,1217 -332,1905 800,-390 1689,-593 2592,-618 266,-7 532,0 799,23 1487,-1149 2134,-2577 2789,-4021 256,-564 513,-1132 823,-1694 96,-174 145,-287 131,-319 -3,-6 -86,-10 -270,-12 -1236,-10 -2386,173 -3435,518 -1033,340 -1966,839 -2783,1465zm2826 4872c-5,0 -10,-1 -15,-2 -281,-30 -563,-42 -843,-34 -828,23 -1637,215 -2356,583 -1324,678 -2344,1970 -2599,3933 302,-168 627,-256 951,-283 500,-43 1000,62 1405,238 1359,592 1975,164 2633,-292 249,-172 502,-348 808,-499 1379,-678 2354,-243 3685,352 198,89 9,5 199,90 185,82 348,160 506,236 268,129 521,250 732,326 25,2 50,3 76,5 -384,-2132 -1836,-3583 -3568,-4257 -520,-202 -1066,-335 -1615,-396z"/></g><text x="0" y="60015" fill="#000000" font-size="5px" font-weight="bold" font-family="'Helvetica Neue', Helvetica, Arial-Unicode, Arial, Sans-serif">Created by Olena Panasovska</text><text x="0" y="60020" fill="#000000" font-size="5px" font-weight="bold" font-family="'Helvetica Neue', Helvetica, Arial-Unicode, Arial, Sans-serif">from the Noun Project</text></svg>