<svg xmlns="http://www.w3.org/2000/svg" xmlns:xlink="http://www.w3.org/1999/xlink" xml:space="preserve" version="1.1" style="shape-rendering:geometricPrecision;text-rendering:geometricPrecision;image-rendering:optimizeQuality;" width="50px" height="50px" viewBox="0 0 60000 75000" x="0px" y="0px" fill-rule="evenodd" clip-rule="evenodd"><defs><style type="text/css">
   
    .fil0 {fill:black;fill-rule:nonzero}
   
  </style></defs><g><path class="fil0" d="M42412 39100c-182,-123 -230,-371 -106,-553 123,-182 371,-230 553,-106 208,141 450,321 730,529 882,656 2146,1596 3345,2087 1229,503 2410,516 2984,-888 114,-280 183,-589 172,-931 -11,-348 -105,-735 -318,-1166 -98,-198 -16,-437 181,-534 32,-16 65,-27 98,-33 714,-176 1196,-488 1486,-858 167,-213 271,-449 318,-689 48,-243 40,-491 -17,-726 -60,-249 -175,-485 -334,-690 -630,830 -1471,1112 -2268,1131 -835,20 -1619,-262 -2037,-491 -49,-27 -92,-52 -127,-74 -1434,-909 -3361,-1277 -5099,-1171 -1727,105 -3243,669 -3849,1625 -605,955 -469,2568 174,4174 646,1617 1802,3202 3236,4111 36,23 77,50 121,83 386,280 976,870 1315,1633 321,724 425,1598 -47,2517 263,49 536,43 795,-18 248,-58 482,-166 684,-322 200,-155 368,-359 483,-609 188,-408 244,-948 87,-1619 -50,-215 84,-430 298,-480 42,-10 85,-13 126,-9 731,9 1273,-170 1645,-453 216,-164 375,-365 483,-586 108,-223 163,-464 168,-706 8,-403 -121,-809 -371,-1138 -29,-39 -50,-81 -64,-125 -206,-60 -414,-135 -623,-220 -1299,-531 -2607,-1505 -3520,-2184 -282,-210 -526,-391 -701,-510zm-16217 -24498c-47,-68 -31,-161 37,-208 68,-47 161,-31 208,37 220,314 460,721 687,1146 250,469 484,959 657,1372 32,76 -4,164 -80,196 -76,32 -164,-4 -196,-80 -173,-412 -402,-893 -644,-1348 -222,-416 -456,-813 -668,-1116zm3232 7755c1543,1985 1924,3999 1617,5993 -35,225 -78,449 -130,673 1491,-2395 2842,-4682 4100,-6822 18,-58 50,-113 93,-158l246 -418c1813,-3085 3437,-5850 5023,-8173 -1038,-413 -1709,-1682 -2074,-3091 -371,-1434 -436,-3040 -247,-3979 16,-77 33,-150 51,-218 3,-10 -2,5 3,-16 31,-141 35,-410 -77,-680 -108,-260 -336,-516 -776,-637 -15,-4 -46,-11 -94,-22 -216,-47 -353,-259 -306,-475 8,-38 22,-74 40,-107l10 -19c5,-10 11,-20 17,-30 215,-370 737,-621 1346,-700 569,-74 1239,-8 1795,245 35,16 78,37 130,64 150,79 290,171 416,279 150,-271 311,-427 433,-475 9,-3 16,-6 24,-9 500,-167 1209,-145 1875,111 527,203 1035,550 1402,1062 367,512 593,1184 556,2033 -21,492 -132,1046 -358,1665 1278,-1142 2611,-1946 4071,-2351 -29,-470 100,-922 345,-1297 299,-457 774,-799 1351,-919 578,-120 1149,5 1605,304 457,299 799,774 919,1351 120,578 -5,1149 -304,1605 -299,457 -774,799 -1351,919 -578,120 -1149,-5 -1605,-304 -326,-214 -595,-517 -765,-884 -2132,598 -4007,2154 -5871,4442 -7,10 -14,20 -21,30 -13,18 -27,34 -43,49 -1445,1788 -2884,4014 -4432,6574 701,-547 1336,-882 1905,-1056 762,-234 1414,-187 1950,29 541,218 955,603 1244,1045 380,582 547,1273 501,1806 0,5 -1,2 -4,27l0 0c-18,130 -122,329 -337,546 124,93 239,202 346,323 31,35 61,72 92,111 378,483 599,1120 661,1690 68,627 -62,1206 -391,1495l-16 13c-27,25 -59,46 -94,63 -198,96 -437,13 -533,-186 -13,-26 -28,-55 -45,-86 -221,-400 -522,-561 -800,-606 -289,-46 -550,21 -679,85 -2,1 -7,4 -15,8 -71,39 -149,78 -232,117 -855,398 -2272,706 -3601,680 -1175,-23 -2297,-306 -2964,-1012 -2302,3913 -4921,8300 -8131,12920 2921,-2539 6304,-3954 10402,-1190 848,-979 2453,-1552 4228,-1660 1890,-115 3995,292 5574,1293 27,17 55,34 83,49 335,184 964,410 1633,394 635,-15 1307,-259 1777,-1000 33,-53 64,-104 92,-155l1 0c10,-18 22,-36 35,-53 135,-173 386,-204 559,-69 469,367 795,884 931,1445 84,348 97,712 27,1067 -71,358 -225,708 -474,1027 -327,418 -817,777 -1492,1014 138,376 203,730 214,1062 15,463 -78,880 -232,1256 -531,1299 -1396,1751 -2389,1720 153,348 228,726 221,1101 -7,358 -87,714 -246,1040 -160,328 -398,628 -720,873 -420,320 -980,541 -1688,600 79,651 -15,1206 -224,1660 -172,374 -421,676 -718,906 -294,229 -635,385 -993,469 -571,133 -1189,80 -1734,-167 -29,-12 -57,-27 -83,-46 -179,-129 -219,-379 -89,-558 35,-48 69,-98 101,-149 469,-740 402,-1453 145,-2035 -271,-612 -743,-1084 -1052,-1308 -27,-19 -54,-38 -80,-54 -1580,-1001 -2845,-2731 -3548,-4490 -666,-1665 -830,-3376 -290,-4561 -5556,-3742 -9831,1171 -13394,5266 -69,79 -35,41 0,0l0 0 -329 377c-357,462 -720,925 -1090,1389 -1816,2278 -4180,4856 -6864,7407 -2406,2287 -5073,4555 -7838,6566 -178,129 -427,90 -556,-88 -129,-178 -90,-427 88,-556 2729,-1986 5369,-4231 7757,-6501 2655,-2524 4993,-5074 6789,-7326 2190,-2747 4142,-5453 5909,-8074 1207,-1852 2217,-3773 2514,-5699 280,-1816 -80,-3654 -1525,-5470 -985,357 -2337,129 -3621,-494 -1359,-659 -2665,-1766 -3374,-3083 -9,-17 -21,-37 -36,-61 -154,-247 -488,-632 -940,-872 -421,-224 -951,-312 -1530,-1 -38,20 -77,43 -118,69 -18,11 -37,21 -58,30 -204,85 -437,-12 -522,-216 -188,-451 -213,-952 -85,-1409 79,-282 218,-549 413,-777 196,-229 449,-419 755,-547 381,-159 844,-220 1383,-139 54,-286 143,-536 258,-756 176,-338 409,-598 667,-803 819,-649 1552,-691 2200,-380 48,-224 132,-439 249,-637 157,-267 372,-503 634,-683 264,-182 575,-309 923,-357 417,-58 886,-2 1384,209 202,-454 477,-787 791,-1014 274,-198 576,-315 883,-361 301,-45 608,-20 899,65 468,136 892,427 1182,827l-1 0c15,21 29,44 40,68 91,200 3,437 -197,528 -36,16 -76,37 -121,61 -580,312 -798,803 -843,1277 -48,510 89,1002 211,1267 8,17 19,38 32,63 708,1316 913,3015 714,4512 -179,1352 -694,2558 -1472,3208zm-2236 -4494c98,197 19,436 -178,534 -197,98 -436,19 -534,-178 -89,-179 -187,-397 -299,-650 -350,-787 -853,-1915 -1484,-2711 -622,-785 -1391,-1233 -2278,-530 -180,142 -340,320 -458,546 -122,233 -203,524 -222,890 -11,220 -199,389 -419,378 -30,-2 -59,-6 -87,-14l0 0c-545,-153 -983,-128 -1312,9 -186,77 -338,191 -455,328 -118,138 -202,300 -251,474 -42,149 -58,306 -47,461 742,-285 1417,-148 1966,144 596,317 1039,828 1243,1157 22,35 42,70 61,105 626,1164 1795,2149 3017,2742 1207,585 2441,783 3202,374 761,-410 1276,-1548 1452,-2876 179,-1347 0,-2866 -627,-4031 -15,-27 -32,-64 -54,-109 -161,-351 -344,-1001 -280,-1673 58,-615 313,-1249 948,-1710 -132,-95 -280,-167 -435,-212 -181,-52 -372,-68 -561,-40 -183,27 -364,98 -530,217 -274,198 -510,534 -656,1035 -61,211 -282,333 -494,272 -36,-10 -69,-25 -99,-44 -483,-281 -919,-365 -1285,-314 -220,30 -415,110 -579,223 -166,114 -301,262 -400,430 -138,236 -204,510 -179,780 153,148 301,314 442,492 692,873 1219,2057 1587,2883 112,253 210,471 284,619zm24287 -13003c-287,-188 -644,-267 -1005,-192 -361,75 -657,290 -845,576 -188,287 -267,644 -192,1005 75,361 290,657 576,845 287,188 644,267 1005,192 361,-75 657,-290 845,-576 188,-287 267,-644 192,-1005 -75,-361 -290,-657 -576,-845zm-8675 35912c-61,-56 -65,-151 -9,-212 56,-61 151,-65 212,-9 465,426 964,773 1470,1072 509,300 1024,552 1517,785 75,35 107,124 71,199 -35,75 -124,107 -199,71 -500,-237 -1023,-492 -1541,-798 -522,-308 -1038,-667 -1520,-1109zm-5913 -20190l-80 137c187,21 374,39 561,55 2322,201 3826,-38 4754,-374 779,-282 1088,-554 1120,-668l0 -2c32,-374 -92,-870 -373,-1300 -208,-317 -499,-592 -872,-742 -378,-152 -849,-181 -1418,-7 -939,288 -2115,1111 -3541,2790 -42,50 -94,87 -151,111zm-523 888l-328 558 -180 306c445,668 1457,928 2545,949 1209,23 2489,-252 3254,-608 64,-30 125,-60 182,-92 13,-7 30,-16 52,-27 227,-110 674,-229 1151,-153 329,52 674,192 976,481 1,-94 -4,-196 -16,-303 -48,-439 -214,-923 -495,-1284 -20,-25 -41,-51 -64,-77 -72,-82 -154,-158 -244,-223 -64,-46 -131,-86 -200,-117 -176,95 -377,186 -605,269 -1018,369 -2641,634 -5095,421 -287,-25 -598,-58 -934,-101zm6878 -1739l0 -1 0 1zm0 -1c1,-3 2,-6 2,-9l0 -2 0 0c2,-14 -1,5 -2,11zm-2395 -6963c202,-286 404,-565 606,-835 -2,-5 -4,-10 -6,-15 -151,-389 -285,-762 -405,-1119 -785,-2346 -939,-4042 -850,-5172 21,-266 58,-504 107,-717l-8 -12c-56,-82 -122,-154 -196,-218 -83,-71 -175,-133 -274,-184 -20,-10 -50,-25 -89,-43 -419,-190 -929,-239 -1367,-182 -107,14 -207,33 -298,56 353,226 570,528 699,836 186,446 175,909 121,1155 -1,5 -6,24 -15,57 -14,52 -27,107 -39,165 -169,839 -105,2299 237,3622 325,1256 890,2365 1720,2592 19,5 39,10 58,14zm1176 -1581c94,-119 187,-236 281,-351 1255,-1731 1752,-3069 1796,-4077 28,-652 -139,-1157 -410,-1536 -271,-378 -646,-634 -1036,-784 -489,-188 -990,-212 -1331,-101 -93,45 -263,454 -334,1351 -83,1046 65,2632 809,4856 70,209 145,423 225,642zm-18152 29549c38,-43 78,-90 0,0l0 0z"/></g><text x="0" y="60015" fill="#000000" font-size="5px" font-weight="bold" font-family="'Helvetica Neue', Helvetica, Arial-Unicode, Arial, Sans-serif">Created by Olena Panasovska</text><text x="0" y="60020" fill="#000000" font-size="5px" font-weight="bold" font-family="'Helvetica Neue', Helvetica, Arial-Unicode, Arial, Sans-serif">from the Noun Project</text></svg>