<svg xmlns="http://www.w3.org/2000/svg" xmlns:xlink="http://www.w3.org/1999/xlink" xml:space="preserve" version="1.1" width="140px" height="170px" style="shape-rendering:geometricPrecision;text-rendering:geometricPrecision;image-rendering:optimizeQuality;" viewBox="0 0 60000 75000" x="0px" y="0px" fill-rule="evenodd" clip-rule="evenodd"><defs><style type="text/css">
   
    .fil0 {fill:rgb(97, 109, 80);fill-rule:nonzero}
   
  </style></defs><g><path class="fil0" d="M17587 21931c-4633,-4168 -3070,-6211 -1621,-8104 535,-699 1053,-1376 1186,-2121 24,-136 88,-246 178,-323 56,-48 121,-81 192,-100 70,-18 143,-21 218,-8 138,25 283,105 409,253 209,245 331,497 452,746 201,414 397,817 1028,1086 264,112 459,209 604,374 65,74 117,157 155,256 328,-415 687,-728 1119,-929 556,-258 1222,-325 2088,-177l228 39 -72 220c-188,575 176,1282 536,1981 252,489 502,973 585,1443 172,964 -316,1791 -2729,2248 -138,653 -448,1195 -751,1613 169,-54 341,-99 517,-134 918,-184 1919,-102 2966,380 452,184 1050,116 1671,45 1481,-170 3087,-354 3787,2362l1 1c108,430 173,839 204,1227 74,580 505,880 908,1161 780,543 1478,1029 280,2854 -81,123 -118,225 -126,328 -2,32 -2,64 0,98 951,756 1318,1415 1363,2004 47,612 -252,1124 -608,1581 -75,97 -119,186 -125,266 -5,70 21,142 83,216 503,603 300,999 97,1395 -52,101 -103,201 -135,302 -52,166 -104,289 -193,403 -88,113 -204,203 -381,302 -917,511 -1695,695 -2394,689 1008,272 2150,423 3350,421 2111,-4 4397,-481 6450,-1599 278,-435 631,-676 1022,-815 -196,-227 -278,-539 -353,-830 -35,-135 -69,-264 -111,-363 -29,-69 -58,-128 -92,-175 -29,-42 -64,-78 -108,-109 -540,-383 -799,-803 -864,-1167 -33,-188 -16,-363 41,-513 60,-157 162,-286 296,-377 195,-132 452,-179 735,-104 74,20 114,26 138,18 30,-9 74,-45 144,-104 559,-474 1084,-741 1555,-837 342,-69 656,-48 936,49 283,98 527,272 728,508 16,19 32,39 48,59 3,-46 8,-91 13,-136 118,-940 705,-1654 2373,-1445 81,10 163,-41 252,-97 58,-36 118,-74 195,-109 546,-251 980,-336 1321,-300 224,23 409,98 559,211 149,113 262,262 343,439 156,340 190,778 143,1226 -9,85 4,149 34,204 36,67 99,133 176,209 259,253 445,531 543,816 115,336 111,681 -37,1008 -67,149 -164,292 -292,428 753,-6 1031,437 1190,941 42,131 74,267 105,399 39,165 77,324 128,444 36,84 72,155 116,213 40,53 87,97 148,134 652,392 982,839 1085,1250 57,230 45,450 -23,644 -68,195 -192,364 -355,491 -266,208 -636,306 -1040,231 -120,-22 -191,-26 -247,-7 -62,20 -135,74 -248,161 -601,466 -1147,765 -1642,932 17,957 -799,1432 -1476,1826 -167,97 -324,189 -449,277 -98,70 -192,150 -272,236 -68,74 -125,151 -162,229 -138,284 -329,461 -548,553 -169,71 -349,91 -533,70 -175,-20 -352,-76 -522,-159 -469,-228 -899,-666 -1076,-1086 -111,-261 -155,-470 -206,-706 -20,-95 -42,-195 -69,-306 -39,-155 -112,-322 -191,-499 -74,-168 -152,-345 -215,-535 -210,126 -422,231 -662,279 -339,67 -712,15 -1166,-265 -77,-47 -179,-81 -267,-83 -42,-1 -74,2 -80,12 -290,419 -670,541 -1022,472 -153,-30 -298,-98 -427,-194 -126,-94 -237,-215 -322,-355 -238,-389 -289,-926 47,-1426 123,-184 135,-250 162,-412 9,-54 20,-117 40,-216 48,-239 107,-451 175,-641 -1988,975 -4153,1396 -6164,1400 -1318,2 -2572,-176 -3667,-495 321,393 616,800 866,1253 305,551 542,1167 679,1905 221,-242 533,-332 860,-372 132,-16 274,-23 411,-30 170,-8 333,-16 461,-44 88,-20 164,-43 231,-76 59,-30 111,-68 159,-121 504,-569 1004,-812 1427,-838 237,-14 451,38 629,140 180,103 323,255 419,439 156,299 184,681 37,1065 -44,115 -61,184 -53,242 8,64 48,145 114,273 348,676 543,1268 616,1785 495,83 818,366 1051,723 347,376 722,698 1112,973 1036,632 2871,176 4844,-314 911,-226 1851,-460 2765,-600 5,-1 11,-2 17,-3l2 0c742,-112 1466,-163 2146,-97 919,89 1783,216 2522,365 684,137 1263,293 1680,454 25,-29 50,-57 76,-85 607,-655 1440,-966 2292,-979 844,-13 1709,268 2390,794 81,63 161,131 240,204 789,730 859,1416 930,2101 39,381 79,762 259,1137 16,22 32,45 48,68 98,143 137,277 133,400 -3,102 -35,193 -88,272 -48,73 -111,134 -183,183 -176,121 -416,181 -587,175 -476,-15 -929,109 -1372,230 -666,182 -1310,358 -2034,107 -937,-325 -1607,-932 -1996,-1694 -383,-749 -491,-1645 -312,-2564 -392,-145 -926,-287 -1556,-413 -725,-146 -1575,-271 -2482,-358 -182,-18 -368,-26 -557,-27 796,349 1581,987 2317,1760 2022,2125 3690,5294 4074,6147l12 0c546,-19 1040,209 1412,574 367,359 616,852 679,1370 7,59 12,123 14,192 22,659 -244,983 -510,1307 -136,166 -272,331 -349,542 -3,15 -5,30 -8,45 -22,119 -71,205 -136,266 -56,52 -121,83 -190,97l0 -1c-61,12 -123,11 -183,0 -141,-27 -282,-113 -360,-197 -182,-196 -414,-330 -641,-461 -361,-208 -711,-410 -917,-838 -261,-544 -285,-1094 -123,-1589 153,-466 472,-879 914,-1190 -403,-880 -2019,-3929 -3979,-5988 -1135,-1193 -2376,-2044 -3535,-1911 -899,137 -1830,369 -2732,593 -1358,337 -2654,659 -3716,632 270,126 540,235 806,329 62,17 120,37 174,60 1355,452 2567,528 3052,558 99,6 170,11 214,17 341,47 708,141 1065,319 1594,-1355 2411,-1232 2967,-594 269,308 458,734 648,1163 267,601 537,1210 1003,1390 5,2 10,4 15,6l207 78 -106 191c-4,8 -8,15 -12,22 -364,652 -766,1058 -1235,1290 -354,175 -740,248 -1174,250 33,67 55,135 67,205 33,189 -8,373 -75,611 -155,551 5,890 170,1238 101,214 204,431 256,704 32,170 7,315 -53,425 -33,61 -78,111 -130,150 -54,40 -115,67 -180,79 -105,20 -219,3 -328,-57 -321,-176 -991,-259 -1774,-357 -911,-113 -1971,-245 -2886,-577 -1638,-594 -2783,-1793 -1787,-4539 167,-460 333,-997 333,-1441 0,-342 -108,-628 -418,-765 -46,-15 -91,-31 -137,-47 -4,-1 -9,-3 -13,-5 -699,-248 -1428,-594 -2118,-1081 -84,-52 -163,-111 -239,-176 -69,-53 -138,-107 -206,-163l35 97c65,183 127,355 191,493 51,111 113,218 182,310 61,81 127,151 196,202l1 0c254,187 393,407 444,640 39,177 25,359 -30,536 -52,169 -139,333 -252,485 -310,419 -819,762 -1264,860 -272,60 -488,66 -732,72 -94,3 -192,5 -314,13 -158,10 -336,52 -526,97 -179,42 -367,87 -565,113 85,229 149,456 152,702 4,345 -116,702 -473,1097 -60,66 -111,161 -129,248 -9,41 -11,73 -3,81 358,361 409,757 276,1091 -58,145 -151,276 -268,385 -115,107 -255,194 -408,252 -426,163 -963,115 -1394,-308 -158,-155 -221,-178 -375,-234 -57,-21 -124,-45 -206,-78 -1215,-491 -1637,-1136 -1747,-1834 -259,151 -581,175 -880,196 -138,10 -271,19 -378,43 -74,16 -136,34 -189,58 -47,21 -88,48 -126,85 -475,460 -935,638 -1304,636 -192,-1 -361,-50 -498,-134 -143,-87 -251,-212 -316,-360 -94,-216 -93,-478 32,-742 33,-69 46,-107 43,-132 -4,-31 -31,-80 -76,-160 -364,-636 -531,-1201 -538,-1682 -6,-349 72,-654 219,-912 148,-260 363,-469 633,-623 22,-13 45,-25 68,-37 -45,-12 -89,-24 -132,-38 -902,-287 -1496,-995 -986,-2597 24,-77 -11,-167 -50,-265 -26,-65 -52,-133 -72,-211 -147,-582 -151,-1025 -53,-1354 64,-215 171,-383 310,-511 139,-127 307,-211 493,-258 362,-91 799,-44 1232,84 83,24 147,23 206,4 71,-23 148,-73 238,-136 295,-208 602,-340 902,-384 352,-52 690,16 984,220 119,83 231,188 331,317 -103,-926 -360,-1656 -711,-2291 -303,-548 -679,-1031 -1090,-1509 -202,2180 -1638,2546 -3126,2925 -567,144 -1143,291 -1639,547 -209,108 -390,139 -568,114 -171,-23 -327,-95 -498,-197 -215,-128 -508,-224 -822,-328 -769,-254 -1653,-545 -2099,-1473 -269,-561 -778,-878 -1239,-1165 -765,-476 -1419,-884 -1027,-2048 -302,11 -613,-6 -925,-50 419,2910 -428,3396 -1275,3883 -538,309 -1076,618 -1172,1789 -27,328 -148,569 -304,699 -87,73 -185,114 -288,121 -105,7 -209,-22 -305,-89 -157,-110 -290,-329 -350,-669 -75,-429 -182,-831 -284,-1216 -169,-639 -326,-1231 -315,-1819 4,-187 15,-363 35,-530 -1258,967 -2853,591 -3064,541l-5 -1c-544,-128 -999,-350 -1378,-719 -373,-363 -666,-866 -892,-1560 -2,-4 -3,-9 -4,-13l-69 -214 228 -38c552,-93 1048,-546 1550,-1005 214,-195 428,-391 658,-570 1064,-825 2279,-1156 4232,1283 302,-222 641,-395 1003,-542 -472,-260 -911,-588 -1290,-980 -127,-132 -247,-271 -360,-417 -123,-140 -226,-294 -309,-455l-4 -8c-19,-37 -37,-74 -53,-111 -130,-290 -200,-601 -211,-900 -22,-629 219,-1210 711,-1459l14 -6c253,-104 382,-612 519,-1145 166,-651 341,-1334 831,-1602 173,-94 364,-155 576,-173 117,-10 241,-7 371,12 -30,-179 -52,-364 -64,-557 -4,-65 -8,-137 -12,-199 -16,-281 -17,-306 -186,-608 -130,-233 -198,-529 -192,-828 5,-244 58,-492 166,-711 112,-226 282,-422 517,-553 19,-11 39,-21 58,-31 -1019,-468 -1898,-1080 -2679,-1793 -888,-811 -1650,-1752 -2349,-2763 -35,10 -71,20 -108,30 -864,225 -1733,38 -2458,-410 -719,-445 -1297,-1147 -1587,-1957 -34,-95 -65,-195 -93,-302 -271,-1039 39,-1655 349,-2271 172,-342 345,-685 394,-1098 -2,-27 -3,-55 -4,-83 -6,-173 34,-307 103,-408 58,-84 134,-143 221,-182 79,-35 166,-52 254,-55 213,-7 447,72 588,168 392,269 841,408 1280,545 659,205 1296,404 1772,1006 614,778 852,1651 769,2501 -81,839 -474,1653 -1122,2332 675,972 1409,1875 2260,2652 886,809 1899,1481 3106,1951 71,-5 138,-30 200,-69 41,-26 79,-57 115,-93 -1503,-1019 -2564,-2874 -3271,-4867 -174,-490 -326,-988 -458,-1485 -2,-6 -3,-11 -5,-17l-1 -6c-49,-185 -95,-370 -139,-554 -898,-3294 -2843,-5568 -3777,-6660 -80,-94 -153,-179 -217,-255 -610,299 -1259,396 -1860,275 -625,-125 -1195,-482 -1615,-1087 -328,-471 -332,-967 -335,-1479 -2,-329 -5,-666 -107,-990 -40,-127 -46,-321 8,-479 23,-67 56,-130 103,-183 52,-60 117,-106 198,-132 96,-30 209,-30 340,15 19,7 38,13 56,20 285,49 554,2 823,-44 504,-87 1009,-175 1693,244 66,41 131,84 194,131 513,381 888,943 1048,1549 163,613 108,1273 -240,1841 -7,12 -15,24 -22,35 68,82 148,175 237,279 727,850 2054,2402 3052,4592 -174,-1382 -182,-2543 -59,-3167 -14,-9 -27,-18 -40,-28 -546,-381 -861,-964 -958,-1591 -96,-620 22,-1285 339,-1839 39,-68 81,-134 125,-198 459,-658 956,-781 1454,-903 265,-65 531,-130 773,-290 14,-13 28,-26 42,-40 103,-94 206,-140 306,-150 85,-9 163,7 234,41 62,30 118,74 167,127 113,124 185,304 199,436 36,336 169,647 300,951 201,470 396,924 285,1487 -143,722 -522,1278 -1044,1643 -499,349 -1127,521 -1802,494 -165,930 -45,3006 479,5223 54,198 105,399 152,604l0 1c130,486 280,975 450,1456 686,1933 1707,3725 3143,4686 210,-250 474,-430 773,-546zm-1304 -7862c-1360,1777 -2828,3697 1764,7738 319,-53 662,-49 1014,8 -1348,-2269 -1313,-3978 -1278,-5625 20,-961 40,-1901 -232,-2912 -28,-107 35,-216 141,-245 107,-28 216,35 245,141 285,1063 265,2031 244,3023 -33,1581 -67,3222 1200,5374 383,-324 803,-610 1256,-835 4,-5 8,-10 12,-15 362,-419 955,-1137 1124,-2077l3 -20c1,-10 3,-20 5,-30 59,-359 55,-754 -46,-1180 -72,-162 -125,-331 -161,-504 -218,-542 -596,-1128 -1198,-1755 -24,-25 -44,-46 -62,-64 -92,-94 -142,-145 -179,-228 -42,-94 -46,-179 -55,-363l0 -2c0,-5 -1,-11 -1,-16 -12,-242 -59,-387 -146,-485 -93,-105 -247,-180 -460,-270 -769,-327 -997,-797 -1231,-1279 -110,-226 -221,-455 -396,-660 -61,-72 -122,-110 -175,-119 -19,-3 -35,-3 -49,0 -12,3 -23,9 -32,17 -21,18 -37,48 -44,88 -149,840 -697,1556 -1262,2295zm4197 470c4,93 8,139 18,161 9,20 41,53 101,114 20,20 42,43 64,66 362,377 649,743 873,1095 34,-300 111,-603 225,-901 259,-675 713,-1326 1311,-1855 -562,-46 -1015,26 -1398,204 -465,216 -840,595 -1194,1115zm1477 2256c227,578 289,1113 249,1600 1986,-400 2403,-1035 2274,-1760 -73,-411 -309,-868 -546,-1329 -304,-589 -610,-1184 -632,-1758 -531,479 -935,1063 -1167,1668 -204,533 -274,1079 -177,1579zm4248 13930c38,-26 77,-54 117,-83 -517,-463 -534,-873 -426,-1273 -109,-110 -247,-176 -392,-204 -114,-22 -231,-21 -341,2 -108,23 -209,66 -291,127 -102,76 -177,181 -202,310l-67 344 -262 -233c-305,-271 -627,-395 -903,-398 -146,-1 -278,32 -385,96 -100,60 -178,150 -223,264 -54,136 -63,309 -15,514 30,87 59,174 87,260 159,483 307,935 694,1015 59,5 118,9 178,11 7,0 14,0 20,1 41,1 81,2 122,2 777,4 1565,-224 2272,-743 5,-4 11,-8 17,-11zm288 285c-21,15 -42,30 -64,45l-5 4c-780,572 -1651,823 -2510,819 -45,0 -90,-1 -134,-3 -118,6 -223,-2 -317,-23 -205,-22 -408,-59 -608,-108 -4,-1 -8,-2 -13,-3 -97,-24 -192,-52 -287,-82 -233,-62 -501,-125 -792,-194 -907,-214 -2028,-479 -3086,-940 22,193 51,377 87,553 107,306 270,474 454,567 196,100 429,125 645,139 357,24 592,64 794,191 203,127 349,324 523,662 115,221 180,431 243,632 122,389 231,740 723,997 548,-92 761,-391 998,-723 122,-172 250,-351 428,-525 271,-266 471,-409 703,-466 232,-57 467,-22 813,65 211,54 441,103 658,69 198,-31 399,-134 591,-376 175,-394 239,-832 155,-1301zm139 -628c536,-505 826,-1122 896,-1764 81,-748 -133,-1534 -604,-2227 -40,-60 -86,-122 -136,-188 -104,-135 -217,-266 -340,-391l-19 -19c-14,171 -63,352 -116,545 -113,414 -246,900 98,1481 91,155 144,306 160,469 15,158 -5,323 -60,508 -32,111 -72,217 -111,323 -27,73 -54,145 -77,218 -1,32 -10,64 -27,93 -79,304 -61,613 336,953zm1293 -1722c-30,280 -97,555 -202,821 172,-152 346,-313 516,-484 1240,-1548 900,-2526 560,-3505 -43,-124 -86,-247 -121,-357 -120,-369 -207,-719 -225,-1073 -19,-363 36,-724 202,-1103l0 -1c23,-53 54,-119 85,-186 54,-116 110,-238 158,-360 173,-439 239,-917 -407,-1229 -588,-217 -1256,-141 -1898,-67 -674,77 -1321,152 -1867,-71l-9 -4c-965,-447 -1886,-523 -2729,-354 -909,182 -1729,649 -2417,1247 443,132 887,343 1295,619 817,554 1494,1374 1751,2370 408,-236 810,-406 1234,-478 732,-124 1505,50 2441,692l13 9c152,122 295,252 427,387 135,138 259,281 372,429 49,64 99,133 149,207 524,772 763,1652 671,2493zm-1018 2011c-22,20 -44,41 -66,61 120,467 116,909 13,1317 544,155 1312,126 2064,-72 509,-134 1006,-346 1418,-632 401,-278 720,-626 884,-1038 136,-341 166,-731 51,-1169 -23,-87 -42,-168 -54,-246 -1,-6 -2,-12 -3,-18 -13,-88 -17,-171 -11,-255 13,-172 70,-334 190,-517 985,-1501 438,-1882 -174,-2307 -236,-164 -479,-334 -676,-556 -195,2675 -2160,4248 -3482,5306 -34,27 49,-39 -153,123zm-1318 -5498c-627,-336 -1165,-421 -1672,-335 -597,101 -1171,440 -1801,888 71,3 142,6 213,9 1009,46 2029,92 3283,-550l-23 -13zm-3837 322c172,-125 341,-243 507,-352 -205,-950 -841,-1736 -1616,-2262 -408,-276 -854,-480 -1297,-598 -436,-116 -866,-147 -1250,-80 -438,77 -814,283 -1062,640l-4 6c-5,8 -10,16 -16,23 -97,139 -214,263 -350,350 -133,85 -284,134 -452,131 -211,-4 -384,40 -522,117 -159,89 -275,224 -353,381 -82,165 -122,354 -125,541 -4,230 46,455 142,628 214,382 215,415 236,780 3,49 6,107 12,194 220,3271 3209,4322 5474,4893 -373,-284 -707,-620 -985,-999 -535,-730 -862,-1617 -865,-2585 -41,-137 -41,-283 -9,-428 30,-136 89,-272 169,-399 137,-218 340,-417 566,-554 9,-7 20,-13 30,-18 95,-55 193,-99 293,-128 225,-68 454,-89 683,-111 277,-26 554,-52 795,-170zm-1608 775c-167,103 -318,253 -421,418 -56,90 -97,182 -117,272 -18,80 -18,158 3,229 25,84 86,163 190,228 24,15 51,28 80,40 136,-182 310,-335 503,-447 199,-116 419,-188 638,-203 227,-15 454,31 656,153 160,97 303,240 418,437l15 26c114,196 232,399 508,487 219,20 438,-79 659,-179 392,-178 786,-357 1310,-80 145,77 272,181 376,296 116,129 204,273 256,406 17,44 42,128 67,228 13,49 26,107 40,169 85,-1 172,6 256,23 160,31 315,94 453,192 35,-93 69,-187 96,-278 40,-137 56,-254 46,-360 -10,-101 -45,-199 -106,-304 -429,-725 -272,-1299 -138,-1789 79,-289 147,-539 3,-766 -1410,767 -2521,716 -3620,666 -705,-32 -1405,-64 -2168,137zm-24 1660c-67,-13 -135,-26 -201,-42 -4,-1 -8,-2 -12,-3 -86,-22 -170,-49 -250,-89 90,687 361,1318 756,1857 405,553 941,1008 1547,1326 225,118 460,217 701,296 52,14 103,28 152,42 -118,-216 -203,-476 -291,-743l-14 -41c-7,-11 -13,-23 -17,-36 -23,-63 -42,-125 -58,-186 -184,-523 -434,-1011 -1065,-1055 -213,-15 -403,-140 -540,-308 -144,-177 -233,-411 -226,-610 11,-311 -231,-357 -482,-406zm195 -368c376,78 707,199 685,788 -4,106 50,238 137,345 72,89 164,154 257,161 540,38 865,283 1088,616 81,-172 207,-307 364,-402 168,-102 372,-154 594,-152 297,3 628,106 945,325 64,-106 148,-196 248,-270 89,-66 189,-118 297,-155 -11,-47 -22,-94 -34,-139 -22,-88 -41,-155 -51,-181 -36,-91 -98,-192 -181,-284 -74,-83 -164,-157 -265,-210 -351,-185 -657,-47 -960,91 -277,126 -552,251 -890,209l-21 -3 -12 -4c-437,-131 -597,-407 -752,-674l-15 -26c-79,-135 -174,-231 -279,-295 -129,-78 -275,-107 -423,-97 -157,11 -317,64 -464,150 -96,56 -186,126 -266,206zm9171 -185c599,-1090 896,-2457 460,-4199l1 0c-136,-528 -313,-931 -519,-1236 -16,204 -80,413 -159,616 -52,133 -111,261 -167,382 -27,58 -53,115 -81,180l0 0c-139,318 -185,620 -169,923 16,313 97,632 207,971 41,127 80,238 118,349 219,630 437,1260 311,2015zm-11231 2951c-1322,-658 -2481,-1667 -2900,-3328 -155,-36 -297,-47 -426,-36 -155,13 -294,57 -418,125 -337,184 -489,781 -634,1350 -160,626 -312,1224 -743,1410 -341,174 -507,608 -490,1088 9,249 67,508 176,751 13,30 28,59 42,89 82,137 172,268 268,394 51,57 106,111 165,162 480,413 1237,594 2291,222 71,-25 132,-53 188,-79 224,-103 380,-176 714,-35 266,112 462,275 658,437 430,356 859,712 2084,240 -523,-679 -883,-1597 -977,-2791zm-2535 2604c-616,217 -1149,266 -1600,196 647,468 1399,781 2151,926 1013,195 2021,86 2761,-359 84,-50 164,-105 241,-164 -1363,499 -1871,78 -2380,-344 -175,-145 -350,-290 -558,-378 -171,-72 -262,-30 -393,30 -64,30 -135,62 -223,93zm339 1485c-370,-81 -739,-199 -1096,-355 -652,231 -1242,520 -1668,993 -426,473 -697,1142 -716,2140 -10,532 140,1099 302,1711 105,396 215,811 292,1249 40,226 109,358 184,411 18,13 35,18 51,17 17,-1 37,-11 58,-29 80,-67 145,-211 162,-424 113,-1382 743,-1744 1372,-2105 739,-424 1478,-848 1062,-3588 -1,-7 -2,-15 -2,-22zm3178 -380c-409,246 -887,400 -1400,468 -395,1001 153,1343 799,1745 508,316 1067,665 1388,1332 371,773 1169,1036 1864,1266 334,110 646,213 900,364 131,78 243,132 348,146 98,13 203,-7 333,-74 540,-279 1136,-430 1724,-580 1393,-355 2734,-696 2843,-2805 -578,-235 -1092,-515 -1524,-831 -351,-157 -705,-308 -1073,-424 -199,-36 -416,-81 -651,-136 -113,-5 -246,-6 -383,-1 -207,7 -419,27 -581,60l-51 11 -15 4c-7,2 -15,3 -22,4 -89,19 -178,35 -268,49 -764,121 -1568,78 -2310,-167 -516,-170 -1001,-436 -1423,-810 -150,144 -317,270 -498,378zm-188 -2029c473,1111 1299,1774 2234,2082 23,8 47,15 71,23 -156,-223 -233,-467 -313,-725 -58,-185 -118,-378 -216,-568 -140,-270 -247,-423 -380,-506 -133,-83 -318,-111 -610,-131 -253,-17 -528,-47 -785,-174zm3993 2278c122,-10 244,-25 365,-44 83,-13 166,-28 248,-46l7 -2c33,-8 69,-16 107,-24 569,-134 1103,-366 1547,-677 179,-125 343,-264 489,-413 -291,45 -566,-13 -814,-76 -284,-72 -469,-103 -621,-65 -152,37 -301,149 -519,363 -153,150 -270,314 -382,472 -133,186 -259,363 -426,512zm2501 -465c-161,113 -333,216 -514,309 36,5 69,10 96,17 138,31 272,68 404,108 1425,254 1875,18 2325,-218 288,-151 576,-302 1066,-355 441,-74 821,105 1202,284 368,174 736,347 1106,215 13,-5 29,-11 47,-19 149,-68 369,-222 523,-440 144,-204 227,-467 119,-767 -5,-15 -11,-30 -18,-45 -55,-110 -76,-222 -68,-339 12,-163 85,-324 209,-484 305,-391 561,-821 523,-1306 -31,-406 -266,-867 -844,-1404 49,392 -3,751 -133,1077 -195,491 -565,898 -1027,1219 -451,313 -992,544 -1543,689 -823,217 -1676,242 -2293,64 -6,15 -13,30 -20,45 -2,4 -3,8 -5,11 -237,525 -644,979 -1157,1338zm1258 940l85 38c1325,598 2623,1184 4622,71 129,-72 208,-132 261,-199 52,-66 87,-153 125,-276 36,-116 89,-224 144,-331 -190,224 -428,384 -597,461 -27,12 -53,23 -78,32 -526,188 -968,-20 -1411,-229 -324,-153 -648,-305 -966,-251l-13 2c-422,44 -678,178 -934,313 -324,170 -648,339 -1238,370zm-14456 1233c79,-277 184,-521 312,-738 -646,228 -1422,351 -2212,377 -1077,35 -2188,-110 -3035,-417 177,417 387,737 636,979 323,314 716,504 1191,616l5 1c211,50 1971,465 3103,-819zm-5881 -10261l0 -2 -6 -4c-105,-79 -200,-173 -284,-281 -538,179 -1147,300 -1718,264 -413,-26 -808,-133 -1147,-357 -300,-199 -553,-487 -729,-888 -378,344 -337,946 -302,1452 11,165 22,321 19,469 -3,126 -16,253 -44,372 -26,113 -66,221 -121,317 -82,143 -104,270 -82,381 17,83 59,161 119,231 67,78 155,147 256,205 302,174 701,248 992,190 194,-39 344,-99 513,-168 77,-31 158,-64 254,-99 151,-55 316,-85 492,-117 620,-113 1390,-253 1788,-1965zm364 192c-297,1195 -770,1693 -1261,1931 8,197 26,382 93,540 78,183 232,347 538,485 121,55 248,155 328,267 87,122 126,264 72,403 -91,236 -45,416 69,528 53,52 120,92 195,118 79,28 166,40 256,36 249,-12 509,-156 635,-468 98,-244 155,-298 294,-431 34,-33 74,-71 121,-118 1057,-1081 603,-1841 164,-2576 -167,-279 -331,-555 -431,-850 -126,84 -268,146 -423,178 -222,46 -443,28 -649,-43zm-1653 2073c-147,39 -292,66 -430,91 -155,28 -300,55 -424,100 -85,31 -165,64 -241,95 -188,76 -353,143 -586,190 -376,75 -886,-18 -1267,-237 -140,-80 -264,-178 -361,-291 -104,-121 -178,-260 -208,-414 -40,-200 -6,-421 129,-656 33,-58 59,-130 77,-209 22,-94 33,-193 35,-289 2,-122 -8,-274 -19,-435 -45,-649 -98,-1431 561,-1877 -113,-416 -159,-926 -120,-1546 7,-116 10,-188 -3,-234 -11,-40 -45,-83 -112,-151 -247,-250 -355,-559 -336,-847 12,-177 72,-347 179,-490 106,-142 256,-258 447,-328 337,-124 806,-106 1387,163 51,23 98,35 148,37 56,3 119,-5 193,-19 104,-21 229,-68 359,-118 104,-40 211,-80 324,-114 416,-124 844,-144 1193,328 34,-124 82,-235 143,-334 160,-261 402,-430 694,-510 246,-67 528,-69 827,-8 85,17 157,29 215,23 44,-5 88,-23 136,-63 290,-245 612,-429 924,-481 163,-27 324,-19 476,33 154,52 296,148 420,295 187,222 334,565 417,1062 11,66 13,129 16,189 3,80 6,154 42,196 936,1066 714,1817 110,2346l-24 21c255,30 487,119 685,266 202,151 366,361 480,634 156,372 218,861 152,1471 -8,71 -11,114 -6,133 4,13 24,33 66,70 190,166 282,374 282,579 0,140 -43,277 -126,397 -80,115 -197,212 -347,279 -287,128 -704,147 -1227,-48 -38,-14 -75,-20 -113,-21 -44,-1 -96,7 -157,19 -86,17 -189,53 -296,91 -222,79 -461,163 -697,150 133,562 12,1188 -738,1956 -54,55 -96,95 -132,129 -94,90 -133,127 -199,290 -193,478 -597,699 -986,718 -140,7 -279,-13 -406,-58 -130,-45 -249,-116 -344,-210 -221,-218 -318,-549 -161,-957 1,-3 -11,-9 -25,-28 -39,-55 -104,-105 -167,-134 -411,-185 -626,-423 -741,-695 -76,-178 -104,-362 -117,-552zm27011 17612c7,7 13,14 19,22 1285,1721 2219,1500 2973,1322 205,-48 398,-94 593,-106 110,-7 222,-10 328,-13 220,-6 415,-11 657,-64 358,-79 772,-360 1028,-707 87,-117 153,-240 191,-363 35,-113 44,-227 20,-336 -31,-141 -122,-279 -291,-404l0 0c-103,-76 -196,-174 -278,-283 -88,-118 -164,-250 -226,-382 -74,-160 -137,-337 -205,-526 -216,-603 -474,-1324 -1116,-1502 9,545 -130,997 -370,1368 -262,405 -641,710 -1080,936 -619,319 -1358,479 -2043,539 -39,166 -100,323 -180,465 -6,11 -13,22 -19,33zm2099 1870c-662,-19 -1432,-337 -2353,-1546 -193,190 -435,326 -710,383l-22 5 -1 0c-193,37 -385,32 -569,-8 42,386 -8,788 -60,1194 -131,1041 -267,2118 1453,2813 79,32 141,54 193,74 212,77 298,109 519,325 303,297 677,332 972,219 106,-40 201,-99 278,-171 76,-70 134,-152 169,-240 77,-194 39,-433 -189,-663 -116,-117 -139,-279 -105,-443 32,-155 121,-319 225,-434 279,-309 373,-576 370,-827 -2,-220 -79,-446 -172,-681zm-26865 -34967c1,6 1,12 1,19 71,1046 668,1413 1218,1751 156,96 308,189 446,292 334,249 860,873 1058,1606 127,468 123,982 -138,1476 61,37 119,71 175,104 182,108 334,198 444,282 568,-608 912,-1326 983,-2062 73,-752 -139,-1525 -685,-2217 -398,-504 -978,-685 -1578,-872 -467,-145 -944,-294 -1386,-597 -83,-57 -222,-104 -350,-99 -39,1 -75,8 -104,21 -22,10 -40,24 -53,43 -24,35 -37,89 -34,170 1,28 2,55 4,82zm-226 854c-65,150 -137,294 -210,438 -276,549 -552,1098 -319,1991 22,86 50,175 83,267 260,726 777,1355 1420,1752 593,367 1293,535 1993,399 -55,-34 -117,-70 -184,-110 -999,-592 -2919,-1731 -2463,-4199 -126,-151 -236,-327 -320,-539zm6255 -7228c-75,21 -151,39 -226,58 -424,104 -849,209 -1221,743 -38,55 -74,111 -106,168 -273,477 -374,1048 -292,1580 68,440 262,853 589,1159l-1 -5c-146,-841 -427,-2456 1162,-3391 19,-103 49,-207 95,-313zm-7077 -881c-76,13 -152,26 -229,38 84,79 154,162 212,249 1830,221 2221,1812 2424,2642l1 4c177,-412 189,-869 75,-1300 -138,-521 -460,-1004 -900,-1330 -53,-39 -108,-76 -165,-111 -556,-341 -987,-266 -1418,-191zm2476 28690c-391,357 -780,712 -1215,925 786,269 1804,394 2798,362 1040,-34 2044,-241 2712,-637 -1732,-2154 -2768,-1893 -3662,-1199 -211,164 -423,357 -633,549zm34851 1398c-5,8 -11,15 -17,22 -1457,1578 -1069,2456 -757,3164 85,193 166,375 213,563 29,114 51,220 73,320 47,218 88,411 182,634 143,337 495,693 883,881 131,64 264,107 392,121 119,14 233,2 334,-40 133,-56 252,-170 344,-360 56,-115 135,-225 228,-326 99,-107 214,-206 335,-291 142,-101 306,-196 480,-298 553,-322 1214,-708 1272,-1372 -534,108 -1003,54 -1413,-115 -446,-183 -815,-501 -1118,-891 -427,-551 -719,-1247 -903,-1909 -170,-8 -335,-39 -490,-92 -12,-4 -25,-9 -37,-13zm-1455 2406c-102,-654 70,-1469 1090,-2595 -222,-155 -399,-368 -506,-629 -78,-189 -111,-387 -106,-583 -372,112 -776,136 -1186,160 -1047,61 -2131,124 -2500,1942 -14,70 -26,142 -37,204 -37,222 -52,312 -224,568 -237,353 -203,727 -38,997 59,96 134,179 219,242 82,61 173,103 266,122 205,41 433,-40 617,-306 93,-135 248,-187 416,-184 160,4 338,60 469,141 355,218 634,262 880,213 218,-43 425,-159 639,-293zm-1387 8220c-37,454 -192,951 -348,1381 -887,2446 113,3507 1548,4028 869,315 1906,444 2798,555 824,103 1528,190 1918,404 24,13 46,18 62,15 6,-1 11,-4 16,-7 6,-4 12,-12 17,-22 19,-34 25,-88 11,-160 -42,-221 -134,-415 -224,-607 -197,-417 -389,-823 -194,-1517 52,-186 85,-324 65,-436 -18,-104 -87,-208 -239,-342l-7 -6c-120,-106 -176,-156 -218,-238 -38,-74 -45,-136 -59,-251 -6,-54 -4,-39 -9,-75 -94,-726 -279,-1284 -519,-1713 -96,-117 -180,-243 -250,-378 -83,-106 -170,-202 -260,-288 -475,-451 -1042,-633 -1545,-703 -28,-4 -93,-8 -185,-14 -389,-24 -1228,-77 -2241,-318 779,1998 2037,3117 3207,4157 682,606 1335,1187 1860,1904 65,89 46,214 -43,279 -89,65 -214,46 -279,-43 -499,-682 -1137,-1249 -1804,-1842 -1096,-974 -2266,-2015 -3081,-3766zm5563 2868c7,14 32,37 83,82 524,40 966,-6 1349,-196 301,-149 572,-389 827,-748 -649,101 -1300,51 -1870,-132 -233,-75 -453,-173 -654,-292 103,319 184,681 237,1090 12,93 9,70 10,78 8,69 13,105 19,117zm-1178 -2812c107,102 211,216 309,342l6 8c88,114 171,239 250,376 276,325 669,566 1125,712 501,161 1074,207 1650,123 -346,-326 -568,-826 -788,-1322 -178,-400 -354,-797 -584,-1061 -397,-455 -1021,-514 -2304,547 115,80 228,171 337,275zm12597 720l-2 -2c-625,-850 -1328,-837 -1975,-826 -183,3 -362,7 -532,-6 -416,-30 -1195,-272 -1756,-783 -359,-326 -632,-761 -679,-1319 -71,2 -140,4 -204,6 -211,7 -387,13 -525,1 -152,819 -54,1609 282,2267 343,672 938,1209 1771,1498 608,211 1194,51 1799,-115 472,-129 955,-261 1489,-244 100,3 242,-32 347,-105 33,-23 60,-47 77,-74 13,-20 21,-42 22,-65 1,-42 -17,-95 -63,-161 -17,-25 -35,-50 -52,-74zm-265 -835c-26,-161 -43,-322 -59,-482 -63,-611 -126,-1223 -803,-1850 -67,-62 -138,-122 -214,-181 -610,-471 -1385,-723 -2142,-711 -697,11 -1378,245 -1894,738 65,-2 138,-4 215,-7 1160,-39 3391,-115 4336,2210 188,59 375,148 560,282zm-2767 8175c23,-29 46,-57 70,-85 218,-266 437,-532 419,-1042 -2,-47 -6,-99 -13,-156 -53,-429 -259,-838 -562,-1135 -220,-216 -492,-372 -793,-433 519,495 1350,1381 815,2686 25,52 46,106 64,164zm-8779 -17176c-84,-71 -95,-197 -23,-281 71,-84 197,-95 281,-23 222,188 472,311 731,362 254,50 515,32 764,-60 103,-38 218,14 256,117 38,103 -14,218 -117,256 -321,120 -656,143 -980,79 -324,-64 -637,-217 -912,-450zm-19682 6294c-9,-110 72,-207 182,-216 110,-9 207,72 216,182 2,23 3,37 4,45 27,201 115,369 249,480 132,110 315,167 532,148 23,-2 39,-4 47,-5 109,-15 210,62 224,171 15,109 -62,210 -171,224 -29,4 -51,7 -66,8 -327,29 -609,-64 -821,-240 -211,-176 -349,-432 -389,-733 -4,-28 -6,-50 -8,-64zm-23299 -19944c-23,-108 45,-214 153,-238 108,-23 214,45 238,153 64,295 158,535 300,715 136,172 322,295 577,365 106,29 168,139 139,245 -29,106 -139,168 -245,139 -343,-95 -596,-263 -784,-503 -183,-232 -300,-525 -376,-877zm50519 28183c-66,-62 -125,-118 -173,-169 -356,259 -612,594 -735,967 -132,401 -111,848 102,1293 152,316 449,488 756,665 254,147 514,296 735,534 30,32 86,66 141,76 12,2 22,3 29,2 5,-6 10,-21 14,-45 114,-604 -173,-884 -438,-1141 -77,-75 -153,-149 -222,-230 -166,-195 -398,-639 -418,-1104 -12,-280 49,-568 239,-821l-31 -29zm890 2078c195,-767 -197,-1357 -571,-1762 -102,160 -135,341 -128,519 16,365 194,710 322,860 58,68 127,135 197,203 60,58 121,117 179,180zm-33 1292l1 0 0 -1 -1 1zm2111 -9278c-744,-1500 -2185,-1717 -3239,-1727 45,429 263,769 547,1028 488,443 1159,653 1516,680 163,12 329,9 498,6 222,-4 449,-8 678,14zm-15019 -11829c464,-27 920,-54 1293,-217 23,-65 49,-128 80,-190 163,-328 440,-616 802,-806l-27 -86c-99,-313 -233,-737 -329,-1192 -2,-7 -4,-15 -6,-22 -85,-419 -241,-769 -457,-1024 -155,-183 -341,-316 -553,-389 -214,-74 -458,-89 -728,-35 -407,82 -870,321 -1376,751 -109,92 -183,150 -283,181 -106,33 -207,27 -358,-13 -164,-43 -307,-20 -410,49 -66,44 -116,109 -146,188 -32,85 -42,188 -21,302 48,272 258,597 701,911 83,59 148,126 203,206 52,74 93,155 132,249 54,127 91,269 130,418 85,325 179,686 460,805 291,-50 593,-67 893,-85zm2844 1347c8,-1 16,-1 24,-1 168,-8 340,-46 509,-115l1 -1c350,-144 615,-397 761,-690 142,-285 169,-608 49,-900l0 0c-120,-292 -366,-502 -667,-605 -309,-106 -673,-100 -1022,41 -4,2 -8,4 -13,5 -348,145 -611,397 -756,688 -142,285 -169,608 -49,900 120,292 366,502 667,605 154,53 322,78 495,72zm275 372c173,595 437,1209 811,1692 262,338 578,611 953,766 372,153 810,190 1320,60 508,-130 1087,-424 1743,-933 148,-114 247,-186 368,-225 128,-42 253,-40 443,-5 286,53 543,-12 723,-153 103,-81 181,-186 224,-309 43,-123 50,-265 12,-416 -79,-318 -353,-674 -902,-1005 -109,-66 -193,-143 -263,-235 -65,-87 -117,-185 -165,-298 -65,-154 -107,-328 -150,-510 -29,-122 -59,-248 -97,-369 -151,-477 -467,-872 -1627,-506 -470,213 -1090,377 -1880,466 69,331 16,672 -137,979 -187,377 -525,701 -968,883l-38 16 -1 0c-123,47 -247,82 -371,103zm3231 -2809c10,-6 21,-11 33,-15 71,-33 139,-68 202,-104 348,-197 567,-425 676,-665 103,-228 105,-473 22,-714 -78,-227 -230,-452 -443,-660 -103,-101 -189,-193 -250,-305 -67,-124 -98,-260 -79,-433 40,-384 15,-750 -109,-1020 -53,-116 -126,-214 -221,-285 -94,-71 -212,-117 -359,-133 -274,-29 -639,47 -1115,265 -47,22 -99,54 -149,86 -151,95 -291,182 -511,154 -1363,-171 -1838,375 -1928,1097 -99,794 222,1809 410,2404l18 58c380,-109 766,-97 1102,18 360,123 663,363 843,696 794,-82 1406,-238 1857,-443zm-39384 -24006c-30,-90 -57,-201 -88,-328l-23 -94c-395,63 -749,-46 -1046,-232 -480,-300 -811,-811 -917,-1104 -44,-122 -77,-249 -111,-378 -119,-456 -249,-951 -997,-1206 -44,-15 -73,-18 -92,-12 -7,2 -12,6 -17,11 -10,12 -19,29 -26,50 -26,77 -24,170 -4,231 119,377 122,747 124,1109 3,447 6,881 265,1252 359,515 840,819 1365,924 502,101 1047,22 1567,-224zm-217 -811c-212,-695 -629,-1566 -1695,-1811 44,129 78,259 112,387 31,119 62,235 100,342 86,237 357,654 753,901 211,132 458,212 730,182zm4323 1979c22,129 42,241 51,335 575,17 1105,-130 1525,-424 439,-307 758,-778 880,-1393 88,-444 -83,-843 -260,-1255 -142,-331 -287,-669 -330,-1065 -7,-63 -42,-150 -96,-209 -14,-15 -29,-27 -45,-35 -7,-3 -14,-5 -20,-5 -19,2 -45,16 -79,47 -583,534 -503,1040 -429,1506 21,133 42,263 50,390 20,310 -78,911 -397,1378 -198,290 -479,531 -866,632l17 97zm750 -2834c-877,652 -910,1617 -826,2338 261,-81 454,-253 595,-459 263,-385 345,-876 329,-1128 -8,-116 -26,-234 -45,-354 -20,-130 -41,-262 -52,-398zm-5468 7303c-181,1664 916,2623 1798,3200 194,-386 193,-790 92,-1161 -172,-636 -624,-1174 -911,-1389 -130,-97 -271,-184 -415,-272 -189,-116 -383,-235 -564,-378zm22307 33214c58,-461 116,-915 23,-1312 -59,-34 -117,-72 -172,-114 -293,-220 -526,-545 -646,-935l-90 11c-325,40 -765,94 -1230,105 -8,1 -16,2 -25,2 -427,7 -800,97 -1090,263 -208,119 -373,278 -484,473 -112,197 -171,434 -167,709 7,415 157,914 487,1490 71,124 114,207 126,311 13,110 -12,208 -79,350 -73,154 -77,299 -27,412 32,73 86,134 158,179 78,48 177,76 292,76 276,2 634,-144 1025,-523 74,-72 152,-123 240,-163 82,-37 170,-63 269,-85 133,-29 280,-40 434,-51 335,-24 708,-51 876,-305 4,-295 42,-595 80,-892zm1844 -2551c1,-8 2,-16 3,-24 22,-167 17,-343 -21,-522l0 -1c-78,-371 -278,-678 -540,-874 -254,-191 -567,-277 -876,-212l0 0c-309,65 -561,268 -717,545 -161,285 -222,648 -144,1019 78,371 278,679 540,875 254,191 567,277 876,212l0 0c309,-65 561,-268 717,-545 80,-142 135,-302 161,-473zm415 -202c616,-61 1268,-208 1811,-488 380,-196 707,-456 927,-797 219,-339 336,-762 301,-1287 -35,-523 -219,-1145 -599,-1884 -85,-166 -137,-276 -154,-404 -18,-134 6,-257 75,-436 104,-272 87,-536 -18,-738 -60,-116 -150,-212 -262,-276 -114,-65 -251,-98 -407,-89 -327,20 -727,224 -1152,703 -85,96 -176,164 -279,215 -96,48 -202,80 -323,107 -163,36 -342,45 -528,54 -123,6 -251,12 -381,28 -496,61 -941,299 -795,1501 124,501 172,1143 116,1940 337,-7 664,108 937,314 336,253 593,644 692,1113l5 22 0 1c27,135 39,270 37,402zm-2175 -3701c-1,-4 -2,-9 -3,-13 -21,-80 -43,-156 -68,-228 -130,-379 -314,-636 -530,-786 -206,-143 -446,-190 -698,-153 -237,35 -486,143 -730,315 -117,83 -223,150 -345,189 -134,43 -274,49 -441,-1 -370,-110 -734,-152 -1022,-79 -125,32 -235,85 -321,164 -86,79 -154,187 -196,329 -78,263 -70,636 58,1144 14,54 35,109 56,163 65,165 125,318 58,531 -417,1309 33,1876 727,2097 761,242 1819,112 2439,35l60 -7c-38,-393 45,-771 220,-1081 187,-331 477,-586 837,-702 65,-802 22,-1434 -100,-1917zm-22399 -15711l6 -7c37,-45 70,-93 100,-145 129,-229 178,-521 115,-821l0 0c-63,-299 -224,-546 -434,-704 -203,-153 -452,-221 -698,-170 -246,52 -447,214 -571,435 -129,229 -178,521 -115,821 63,299 224,547 434,705 203,153 452,221 698,170 186,-39 345,-141 466,-283zm366 178c63,320 253,639 446,962 126,211 253,425 355,645 197,120 476,21 727,-68 122,-43 238,-84 352,-107 83,-16 159,-26 238,-25 84,1 165,15 248,46 413,154 724,148 925,58 82,-37 143,-86 183,-143 36,-52 55,-110 54,-169 0,-92 -47,-192 -146,-277 -103,-90 -158,-161 -186,-256 -27,-88 -22,-169 -8,-291 58,-540 7,-963 -124,-1276 -85,-203 -205,-359 -351,-467 -145,-108 -317,-171 -507,-192 -269,-29 -576,26 -898,161 -8,3 -16,6 -24,8 -356,146 -706,250 -966,328l-44 13c32,333 -38,653 -187,916 -26,47 -55,92 -87,135zm-3746 -162c489,31 1013,-67 1488,-217 -41,-97 -74,-201 -97,-309 -83,-396 -16,-787 159,-1097 137,-243 340,-437 590,-550 -298,-574 -471,-1069 -543,-1486 -280,-930 -680,-962 -1059,-849 -97,29 -198,67 -296,105 -146,56 -286,109 -424,136 -101,20 -194,30 -288,26 -101,-5 -197,-27 -296,-73 -473,-219 -836,-241 -1082,-150 -115,42 -203,109 -264,190 -60,80 -94,177 -101,279 -12,179 60,376 221,540 116,117 177,207 210,321 31,108 29,211 19,368 -43,683 23,1212 169,1615 145,402 370,679 642,859 275,182 604,270 952,292zm1988 -3741l1 6c67,398 239,884 547,1459 312,-25 617,74 869,263 233,175 421,429 528,732l16 -5c493,-147 1334,-398 1826,-830 439,-385 585,-949 -148,-1784 -130,-148 -135,-290 -141,-444 -2,-45 -3,-92 -11,-137 -71,-421 -186,-701 -328,-870 -75,-89 -157,-145 -243,-175 -87,-30 -183,-34 -282,-17 -236,39 -493,190 -732,392 -117,98 -230,143 -353,155 -109,11 -215,-5 -335,-30 -236,-48 -456,-48 -643,3 -195,53 -355,163 -458,332 -110,180 -163,430 -136,753 5,63 13,128 24,195z"/></g></svg>