<svg xmlns="http://www.w3.org/2000/svg" viewBox="0 0 512 640" x="0px" y="0px" width="70px" height="70px" style="fill: rgb(168, 151, 139)"><title>Relax-Emoji-Emotion-Face-Expression-Feeling_1</title><path d="M314,354.74c-.16,0-15.91,2.6-23.64-12.11a10,10,0,1,0-17.7,9.29c9.61,18.32,27,23,38.62,23a36.82,36.82,0,0,0,6.17-.49,10,10,0,1,0-3.45-19.7Z"/><path d="M180.77,338.42a10,10,0,0,0-13.51,4.21c-7.72,14.71-23.47,12.13-23.63,12.11a10,10,0,1,0-3.46,19.7,37,37,0,0,0,6.18.49c11.59,0,29-4.69,38.62-23A10,10,0,0,0,180.77,338.42Z"/><path d="M501.31,160.89A158,158,0,0,0,442.74,50.83C402,17.77,344.29,1,271.31,1H222.69a10.15,10.15,0,0,0-3.09.49C156.53,4.46,106,21,69.26,50.83A158,158,0,0,0,10.69,160.89c-4,47,18.11,74.09,27.35,83.22V435.24C38,477,70.26,511,109.88,511H402.12c39.62,0,71.84-34,71.84-75.76V244.11C483.2,235,505.32,207.86,501.31,160.89ZM109.88,491C81.29,491,58,466,58,435.24V239.7a10,10,0,0,0-3.86-7.88c-.27-.22-27.59-22.1-23.56-69.23,2.29-26.8,13-65.24,51.24-96.22,35.48-28.78,85.88-44,149.88-45.27h.15L235.8,21c1.62,0,3.25,0,4.89,0q12.8,0,24.9.71C322.06,25.05,367,40,399.52,66.37c38.2,31,49,69.42,51.24,96.22,4,46.58-22.49,68.36-23.57,69.23a10,10,0,0,0-3.85,7.88V435.24C423.34,466,400.08,491,371.5,491H109.88Z"/><circle cx="228.79" cy="411.56" r="33.68"/></svg>