<svg xmlns="http://www.w3.org/2000/svg" viewBox="0 0 512 640" x="0px" y="0px" width="70px" height="70px" style="fill: rgb(168, 151, 139)"><title>Happy-Emoji-Emotion-Face-Expression-Feeling_4</title><path d="M501.31,160.89A158,158,0,0,0,442.74,50.83C402,17.77,344.29,1,271.31,1H222.69a10.15,10.15,0,0,0-3.09.49C156.53,4.46,106,21,69.26,50.83A158,158,0,0,0,10.69,160.89c-4,47,18.11,74.09,27.35,83.22V435.24C38,477,70.27,511,109.88,511H402.12c39.61,0,71.84-34,71.84-75.76V244.11C483.2,235,505.32,207.86,501.31,160.89ZM109.88,491C81.29,491,58,466,58,435.24V239.7a10,10,0,0,0-3.85-7.88c-.28-.22-27.6-22.1-23.57-69.23,2.29-26.8,13-65.24,51.24-96.22,35.48-28.78,85.88-44,149.88-45.27h.15L235.8,21c1.62,0,3.25,0,4.89,0,34.13,0,64.56,3.82,91.1,11.4,1.65.47,3.3,1,4.92,1.46,24.42,7.55,45.41,18.4,62.81,32.51,38.2,31,49,69.42,51.24,96.22a102.58,102.58,0,0,1-.61,23.61c-4.44,30.4-22.08,44.91-23,45.62a10,10,0,0,0-3.85,7.88V435.24C423.34,466,400.08,491,371.5,491H109.88Z"/><circle cx="304.71" cy="355.54" r="19.29"/><path d="M178.81,355.54a10,10,0,0,0-6-9.16l-25.23-11.06a10,10,0,0,0-8,18.31l4.35,1.91-4.35,1.9a10,10,0,1,0,8,18.32l25.23-11.06A10,10,0,0,0,178.81,355.54Z"/><path d="M273.68,374H183.9a10,10,0,0,0-10,10,54.88,54.88,0,0,0,97,35.25h0A55,55,0,0,0,283.68,384,10,10,0,0,0,273.68,374Zm-11.47,20a35,35,0,0,1-4,8.83H199.42a35,35,0,0,1-4-8.83Z"/></svg>